<?xml version="1.0" standalone="no"?>
<!DOCTYPE svg PUBLIC "-//W3C//DTD SVG 20010904//EN"
 "http://www.w3.org/TR/2001/REC-SVG-20010904/DTD/svg10.dtd">
<svg version="1.0" xmlns="http://www.w3.org/2000/svg"
 width="4375.000000pt" height="4375.000000pt" viewBox="0 0 4375.000000 4375.000000"
 preserveAspectRatio="xMidYMid meet">
<metadata>
Created by potrace 1.16, written by Peter Selinger 2001-2019
</metadata>
<g transform="translate(0.000000,4375.000000) scale(0.100000,-0.100000)"
fill="#000000" stroke="none">
<path d="M17386 39834 c-156 -24 -245 -50 -547 -158 -599 -213 -776 -275 -805
-282 -71 -17 -268 -103 -359 -157 -402 -238 -667 -588 -768 -1012 l-21 -90 -3
-6256 -3 -6257 -68 -6 c-307 -32 -514 -161 -834 -521 -315 -354 -406 -425
-569 -442 l-59 -6 37 -33 c55 -48 148 -96 223 -115 l65 -16 -64 -41 c-76 -49
-183 -92 -308 -123 -51 -12 -93 -25 -93 -28 0 -3 24 -37 53 -76 90 -120 230
-214 372 -250 77 -20 245 -19 341 1 191 39 422 150 709 339 99 65 188 120 199
123 22 6 23 10 -39 -160 -23 -65 -39 -118 -34 -118 4 0 63 28 131 61 211 106
371 179 377 174 3 -4 6 -23 7 -43 4 -116 64 -227 159 -292 35 -24 45 -39 64
-97 12 -37 28 -100 34 -140 10 -65 14 -73 33 -73 19 0 24 9 34 68 7 37 16 125
19 196 l6 129 44 24 c109 57 166 12 165 -132 0 -113 -49 -263 -115 -355 -16
-22 -17 -34 -9 -100 5 -41 9 -101 10 -132 0 -31 4 -59 8 -62 9 -6 101 145 131
217 31 72 49 153 57 247 3 47 22 141 41 209 47 169 81 324 98 445 19 132 19
341 0 431 -30 143 -113 262 -220 315 -27 14 -53 30 -57 35 -4 6 -8 70 -8 143
0 72 -3 132 -7 132 -5 0 -40 -35 -80 -77 l-72 -78 -1 5768 0 5767 7230 0 7230
0 0 -12060 0 -12060 -730 0 c-401 0 -730 -2 -730 -5 0 -3 21 -54 46 -113 25
-59 68 -177 96 -262 27 -85 70 -202 95 -260 25 -58 99 -229 164 -381 66 -152
122 -292 126 -312 5 -34 3 -37 -56 -83 -34 -26 -60 -53 -57 -60 2 -6 14 -68
25 -136 29 -171 41 -376 30 -538 -9 -131 -49 -365 -66 -380 -12 -10 -180 7
-297 31 -107 22 -282 75 -381 116 -79 33 -326 158 -439 222 -50 28 -92 49 -94
47 -8 -9 67 -328 95 -404 l16 -43 706 3 c918 4 779 -20 1656 292 640 229 729
266 906 383 l66 44 120 -68 c284 -163 638 -288 983 -347 239 -41 342 -50 618
-50 260 0 263 0 258 -21 -3 -11 -17 -101 -32 -200 -34 -222 -38 -417 -12 -482
12 -30 21 -97 29 -230 7 -103 15 -191 18 -194 3 -4 16 -10 29 -14 19 -5 25 -1
36 27 8 18 22 81 32 140 10 60 21 108 25 108 28 0 160 -469 180 -639 11 -99
48 -171 123 -246 63 -61 174 -127 279 -165 28 -10 81 -31 116 -45 53 -22 78
-27 149 -26 73 1 96 5 148 30 50 23 67 37 82 68 48 95 36 199 -38 319 -137
224 -197 413 -219 691 -12 145 -46 258 -123 402 -106 201 -103 193 -101 246 3
64 60 332 107 505 36 130 139 449 154 476 5 9 24 -7 62 -53 82 -99 106 -123
123 -123 22 0 47 28 47 51 0 15 -67 103 -176 229 -11 13 -2 41 57 180 39 91
73 168 77 172 4 3 108 -14 232 -38 124 -24 226 -44 227 -44 1 0 9 7 17 16 19
19 21 58 4 72 -7 5 -107 29 -223 53 -115 23 -211 43 -213 44 -1 1 70 157 158
346 208 448 204 439 212 439 4 0 4 7 1 17 -10 25 12 9 91 -66 97 -93 289 -309
407 -459 181 -227 396 -542 384 -562 -10 -16 -223 -172 -352 -259 -68 -45
-123 -84 -123 -88 0 -21 96 -123 150 -159 69 -46 163 -39 328 24 10 3 11 -10
7 -64 -13 -142 -47 -353 -76 -473 -34 -143 -34 -149 -13 -172 14 -16 15 -31 4
-144 -16 -155 -9 -282 19 -351 15 -39 22 -94 30 -230 13 -203 17 -232 39 -256
20 -24 68 -23 81 1 9 16 61 275 61 302 0 5 13 9 29 9 40 0 132 -72 207 -162
98 -117 215 -279 235 -326 43 -99 134 -174 258 -213 80 -25 374 -43 459 -27
104 19 202 80 238 149 24 48 18 128 -16 195 -39 76 -41 78 -132 147 -171 129
-343 341 -416 512 -51 117 -114 208 -224 318 -53 53 -91 97 -84 97 11 0 12 55
8 295 -3 177 -1 295 4 295 5 0 39 -30 74 -66 136 -137 303 -238 438 -265 74
-14 227 -8 263 11 15 9 19 15 11 18 -10 3 -10 7 -1 18 7 9 8 14 1 14 -6 0 -12
-6 -15 -12 -2 -7 -7 -10 -11 -7 -10 9 27 69 42 69 6 0 12 10 12 23 0 12 11 58
25 102 14 44 25 87 25 95 0 8 6 27 14 41 7 15 11 38 9 53 -3 16 1 31 12 42 12
12 13 19 5 24 -7 5 -9 20 -5 44 7 37 25 50 25 19 0 -15 2 -16 10 -3 13 20 13
60 0 60 -5 0 -10 9 -10 20 0 11 7 20 15 20 18 0 35 31 35 66 0 33 21 94 32 94
4 0 8 10 8 23 0 13 5 28 11 34 6 6 11 32 12 59 1 27 6 54 10 61 4 7 8 29 8 50
1 56 16 107 39 133 11 13 20 36 20 52 0 15 4 28 8 28 8 0 32 76 35 111 1 13 9
15 32 12 77 -12 242 -130 396 -283 185 -184 341 -389 499 -652 66 -110 86
-138 104 -138 29 0 46 18 46 49 0 28 -96 193 -208 356 -120 176 -238 321 -367
451 l-120 122 110 -35 c288 -92 641 -226 882 -337 67 -31 132 -56 143 -56 23
0 46 40 36 65 -3 9 -65 45 -137 79 l-132 63 64 6 c240 24 501 16 636 -19 63
-16 89 -12 98 17 12 37 -4 58 -56 73 -157 47 -460 53 -820 15 l-116 -12 -189
71 c-268 99 -583 200 -822 262 -35 9 -42 14 -36 28 4 9 9 35 12 57 2 22 9 46
14 52 6 7 11 35 13 62 1 28 9 57 16 65 8 8 20 22 27 31 14 16 72 20 336 20
129 0 150 2 159 17 8 12 8 26 1 45 -8 24 -17 29 -64 36 -30 5 -135 7 -232 4
-167 -4 -177 -3 -168 14 13 23 13 26 -5 26 -8 0 -12 -4 -9 -9 3 -4 0 -8 -6 -8
-7 0 -9 7 -6 16 3 9 6 18 6 20 0 2 7 4 15 4 13 0 20 17 41 103 3 15 10 30 15
33 5 3 6 23 3 45 -5 31 -4 39 7 37 10 -2 15 14 19 63 3 44 11 71 23 83 9 10
17 26 17 36 0 10 4 20 10 22 5 2 11 15 12 31 1 15 6 27 10 27 4 0 5 7 1 16 -3
9 0 20 8 25 10 6 10 9 2 9 -7 0 -20 -12 -28 -27 -15 -25 -16 -26 -11 -5 3 16
1 22 -7 18 -104 -45 -284 -114 -362 -138 -90 -28 -113 -31 -230 -32 -139 0
-181 10 -290 70 l-45 25 32 62 c59 118 231 423 326 577 760 1237 1803 2273
3050 3028 l133 81 47 -20 c197 -85 427 -69 615 42 251 148 440 453 502 810 l7
36 -74 19 c-59 15 -108 19 -253 18 -167 0 -187 -2 -270 -28 -171 -52 -322
-151 -421 -274 -54 -68 -136 -232 -158 -318 -9 -34 -19 -91 -23 -129 l-8 -67
-140 -85 c-998 -603 -1895 -1413 -2590 -2338 -294 -391 -550 -794 -773 -1211
-42 -79 -78 -144 -82 -144 -3 0 -25 19 -50 41 -25 22 -69 56 -97 76 -37 25
-53 43 -52 57 0 12 6 80 12 151 l12 130 134 7 c88 5 137 11 142 19 4 7 15 63
24 125 24 155 17 392 -14 522 -13 50 -26 92 -29 92 -4 0 -22 -14 -40 -31 l-33
-30 16 -65 c32 -128 36 -355 10 -497 l-7 -35 -95 -7 c-52 -4 -96 -5 -98 -3 -2
2 2 106 9 230 12 225 13 227 41 265 67 89 276 273 430 378 101 69 137 102 119
109 -9 4 -12 11 -8 18 5 8 0 7 -11 -2 -14 -11 -19 -12 -22 -2 -5 14 -63 17
-63 2 0 -5 -5 -10 -11 -10 -6 0 -8 7 -5 17 4 10 4 14 0 11 -3 -4 -19 -1 -35 8
-17 8 -40 12 -56 9 -26 -6 -27 -5 -10 8 17 14 15 16 -22 22 -23 4 -41 11 -41
16 0 5 -18 9 -40 9 -21 0 -55 8 -75 17 -27 13 -38 14 -44 5 -5 -9 -14 -9 -39
0 -28 11 -34 10 -42 -2 -11 -17 -11 -15 -15 18 -2 17 1 20 8 13 6 -6 29 -11
52 -11 l40 1 -40 15 c-22 9 -45 16 -51 16 -7 1 -12 29 -13 74 -2 72 -1 73 52
156 69 105 157 259 157 273 0 6 -7 21 -16 33 -12 17 -24 22 -47 20 -27 -3 -36
-13 -79 -87 -27 -47 -50 -87 -52 -89 -2 -2 -1 286 2 639 l5 642 65 86 c191
251 398 614 409 715 6 52 -7 76 -42 76 -28 0 -49 -24 -65 -75 -35 -111 -182
-369 -313 -548 l-64 -88 -7 163 c-15 364 -51 781 -82 950 l-16 86 -32 -19
c-54 -32 -174 -68 -291 -89 -174 -30 -406 -40 -855 -39 -337 1 -429 -2 -490
-14 -170 -35 -401 -50 -562 -37 -303 25 -473 113 -582 303 l-40 69 -24 -48
c-14 -27 -46 -114 -72 -193 l-48 -145 -338 -113 c-185 -62 -341 -110 -345
-107 -5 3 -9 1 -9 -4 0 -5 -16 -13 -35 -19 -27 -9 -37 -8 -46 3 -6 8 -17 14
-24 14 -7 0 -15 6 -18 14 -3 8 -22 22 -41 31 -20 10 -36 23 -36 30 0 7 -5 15
-12 17 -7 3 50 99 137 234 82 126 227 351 323 499 96 149 213 328 259 398 88
136 101 177 63 197 -13 7 -26 7 -38 1 -9 -5 -100 -137 -202 -293 -174 -267
-310 -475 -526 -805 -52 -78 -103 -147 -114 -153 -16 -8 -18 -8 -14 4 3 9 -5
21 -23 32 -15 10 -48 36 -72 58 -24 23 -40 35 -36 27 5 -9 4 -12 -2 -8 -6 4
-11 24 -11 44 -2 156 -54 1143 -62 1161 -13 30 -55 30 -73 -1 -12 -19 -11 -78
4 -387 34 -708 34 -727 -1 -685 -7 9 -28 23 -46 31 -19 9 -34 20 -34 24 0 11
-59 70 -69 70 -9 0 -66 49 -139 118 -24 23 -47 42 -51 42 -3 0 -19 12 -36 26
-16 14 -39 34 -51 43 -21 16 -21 18 -25 876 l-4 860 110 7 c107 7 299 48 320
69 6 6 10 79 10 177 0 143 -4 178 -23 245 -59 206 -189 377 -379 502 l-43 28
-3 8791 c-3 8124 -4 8797 -20 8866 -58 264 -155 464 -328 675 -220 269 -583
486 -953 570 -212 48 185 45 -6713 44 -5455 -1 -6462 -3 -6537 -15z m14640
-19092 c84 -70 151 -153 198 -241 67 -128 107 -322 92 -444 l-7 -54 -97 -22
c-53 -12 -135 -23 -182 -24 l-85 -2 -3 423 c-1 232 2 422 6 422 5 0 40 -26 78
-58z m9469 -3172 c38 -6 73 -14 76 -18 12 -12 -39 -172 -86 -270 -150 -313
-396 -501 -658 -502 -61 0 -178 23 -233 46 -33 14 -33 15 -27 62 19 148 76
292 158 400 162 215 465 326 770 282z m-7832 -177 c-13 -147 -7 -513 8 -513 7
0 23 -116 22 -157 0 -13 4 -23 9 -23 6 0 7 -11 4 -25 -4 -17 -2 -25 6 -26 10
0 10 -2 0 -6 -10 -4 -10 -8 0 -21 8 -10 9 -13 1 -9 -6 4 -13 4 -16 0 -2 -5 -2
-3 -1 4 2 7 0 14 -4 17 -4 2 -7 23 -6 45 0 23 -3 41 -7 41 -9 0 -49 34 -127
108 -24 23 -47 42 -50 42 -2 0 -15 11 -28 25 -13 14 -27 25 -32 25 -5 0 -19
11 -32 25 -13 14 -29 25 -36 25 -6 0 -14 6 -17 14 -3 8 -22 22 -41 31 -20 10
-36 21 -36 25 0 11 -59 70 -69 70 -5 0 -26 16 -47 35 -21 19 -63 55 -92 80
-32 27 -47 46 -37 47 8 0 21 1 28 2 6 1 14 4 17 7 5 6 566 196 583 198 4 1 4
-38 0 -86z m396 -2233 c11 -74 22 -154 25 -177 l5 -42 -91 -3 c-59 -2 -92 1
-95 8 -2 6 10 47 28 90 17 43 42 111 56 149 40 110 43 118 47 114 2 -2 13 -65
25 -139z"/>
<path d="M28486 34901 c12 -50 14 -667 12 -3853 l-3 -3793 -31 -86 c-92 -258
-310 -430 -582 -460 -132 -14 -10506 -7 -10555 8 -36 11 -37 10 -31 -10 17
-54 78 -160 124 -215 88 -107 237 -197 375 -227 63 -14 617 -15 5350 -13
l5280 3 86 31 c176 63 316 187 394 349 83 170 76 -207 73 4020 l-3 3770 -27
80 c-65 191 -185 328 -364 416 -111 54 -115 53 -98 -20z"/>
<path d="M27403 32347 c-72 -56 -210 -162 -306 -235 l-174 -132 -329 146 -328
146 -646 -51 -645 -51 -25 -29 c-166 -191 -646 -721 -652 -721 -5 0 -149 123
-321 274 l-312 274 -335 -334 c-184 -184 -340 -334 -345 -334 -5 0 -151 59
-323 131 l-313 132 -320 -327 c-177 -179 -327 -326 -335 -326 -8 0 -157 65
-331 146 -174 80 -319 146 -323 147 -4 1 -145 -126 -314 -281 -169 -156 -321
-296 -338 -310 l-31 -26 -320 80 -321 79 -325 187 -324 188 -66 -53 c-700
-562 -1210 -973 -1226 -988 -19 -19 88 -19 4878 -19 l4897 0 0 1195 c0 657 -3
1195 -7 1194 -5 -1 -67 -47 -140 -102z"/>
<path d="M18710 27505 l0 -345 315 0 315 0 0 345 0 345 -315 0 -315 0 0 -345z"/>
<path d="M19630 27750 l0 -40 720 0 720 0 0 40 0 40 -720 0 -720 0 0 -40z"/>
<path d="M21260 27750 l0 -40 565 0 565 0 0 40 0 40 -565 0 -565 0 0 -40z"/>
<path d="M23820 27750 l0 -40 425 0 425 0 0 40 0 40 -425 0 -425 0 0 -40z"/>
<path d="M24780 27750 l0 -40 900 0 900 0 0 40 0 40 -900 0 -900 0 0 -40z"/>
<path d="M19630 27500 l0 -40 305 0 305 0 0 40 0 40 -305 0 -305 0 0 -40z"/>
<path d="M20500 27500 l0 -40 830 0 830 0 0 40 0 40 -830 0 -830 0 0 -40z"/>
<path d="M23820 27500 l0 -40 725 0 725 0 0 40 0 40 -725 0 -725 0 0 -40z"/>
<path d="M25460 27500 l0 -40 445 0 445 0 0 40 0 40 -445 0 -445 0 0 -40z"/>
<path d="M19630 27255 l0 -45 510 0 510 0 0 45 0 45 -510 0 -510 0 0 -45z"/>
<path d="M20870 27255 l0 -45 500 0 500 0 0 45 0 45 -500 0 -500 0 0 -45z"/>
<path d="M23820 27255 l0 -45 210 0 210 0 0 45 0 45 -210 0 -210 0 0 -45z"/>
<path d="M24500 27255 l0 -45 778 2 777 3 3 43 3 42 -780 0 -781 0 0 -45z"/>
<path d="M34985 25653 c-217 -28 -414 -108 -586 -237 -286 -216 -464 -565
-520 -1021 -7 -61 -13 -252 -14 -485 -1 -400 -4 -427 -51 -617 -83 -337 -258
-504 -473 -449 -34 9 -66 16 -71 16 -8 0 8 -72 25 -113 5 -11 -18 1 -56 30
-68 51 -217 129 -267 139 -27 5 -30 3 -52 -48 -38 -89 -69 -187 -85 -271 -19
-103 -19 -277 1 -375 20 -102 89 -242 154 -314 87 -97 230 -179 364 -209 57
-12 59 -12 77 12 40 50 120 226 134 294 31 148 13 311 -48 440 l-34 71 81 -42
c45 -24 116 -52 159 -63 95 -25 238 -36 292 -23 24 5 86 42 158 95 126 92 268
179 357 217 46 20 69 24 145 22 l90 -2 58 58 c56 57 58 61 77 153 11 52 23
132 26 179 l7 85 -57 39 c-108 74 -170 201 -171 346 0 75 4 92 30 145 29 58
85 110 109 102 6 -2 31 -138 56 -301 30 -202 47 -289 51 -269 4 15 12 98 19
183 6 85 15 158 18 161 4 3 36 13 72 23 100 27 193 81 255 148 65 70 91 117
121 217 l21 74 13 -39 c85 -263 346 -495 677 -603 101 -33 267 -61 362 -61 55
0 62 -2 57 -17 -9 -29 -66 -292 -66 -304 0 -5 5 -7 11 -3 23 14 99 193 158
370 111 333 148 530 138 733 -25 492 -342 869 -818 975 -23 5 -27 12 -32 52
-19 176 -223 367 -471 443 -139 43 -362 62 -501 44z m-1937 -2853 c77 -35 191
-121 268 -203 81 -87 151 -212 175 -317 19 -84 14 -213 -11 -295 -21 -65 -71
-175 -92 -202 -13 -16 -143 29 -215 76 -75 49 -166 148 -203 221 -96 191 -100
442 -10 683 12 31 27 57 33 57 7 0 31 -9 55 -20z"/>
<path d="M28450 25407 c0 -2 10 -30 23 -63 l22 -59 0 -3170 c0 -2969 -1 -3173
-17 -3225 -52 -166 -189 -307 -364 -373 l-59 -22 -5367 -3 c-2953 -1 -5368 -5
-5368 -9 0 -19 70 -110 125 -162 69 -64 157 -112 250 -136 53 -13 653 -15
5420 -15 4742 0 5367 2 5424 15 209 50 381 227 426 440 22 106 22 6224 0 6330
-36 172 -150 319 -306 393 -84 40 -209 75 -209 59z"/>
<path d="M18370 25215 l0 -45 495 0 495 0 0 45 0 45 -495 0 -495 0 0 -45z"/>
<path d="M19500 25215 l0 -45 1045 0 1045 0 0 45 0 45 -1045 0 -1045 0 0 -45z"/>
<path d="M18370 24945 l0 -45 1355 0 1355 0 0 45 0 45 -1355 0 -1355 0 0 -45z"/>
<path d="M18370 24680 l0 -50 570 0 570 0 0 50 0 50 -570 0 -570 0 0 -50z"/>
<path d="M17290 23870 l0 -370 375 0 375 0 0 370 0 370 -375 0 -375 0 0 -370z"/>
<path d="M18370 24135 l0 -45 495 0 495 0 0 45 0 45 -495 0 -495 0 0 -45z"/>
<path d="M19500 24135 l0 -45 1045 0 1045 0 0 45 0 45 -1045 0 -1045 0 0 -45z"/>
<path d="M18370 23870 l0 -50 845 0 845 0 0 50 0 50 -845 0 -845 0 0 -50z"/>
<path d="M20290 23870 l0 -50 515 0 515 0 0 50 0 50 -515 0 -515 0 0 -50z"/>
<path d="M7996 23904 c-16 -5 -18 -13 -12 -66 31 -267 189 -580 383 -758 110
-100 250 -180 378 -214 94 -26 245 -31 350 -13 l89 16 101 -71 c1069 -761
2005 -1715 2711 -2763 274 -406 543 -876 724 -1265 40 -85 77 -160 84 -167 6
-7 37 -23 68 -37 l57 -25 -22 52 c-39 94 -292 599 -372 742 -773 1384 -1845
2573 -3182 3529 -106 75 -123 91 -127 119 -2 18 -9 69 -15 114 -11 93 -61 235
-112 318 -142 236 -390 401 -704 471 -70 15 -363 28 -399 18z m407 -119 c306
-68 555 -260 660 -509 30 -72 67 -226 67 -283 0 -37 -7 -41 -112 -52 -414 -45
-805 297 -922 806 -13 56 -13 62 3 67 34 9 200 -7 304 -29z"/>
<path d="M18370 23605 l0 -45 245 0 245 0 0 45 0 45 -245 0 -245 0 0 -45z"/>
<path d="M19170 23605 l0 -45 905 0 905 0 0 45 0 45 -905 0 -905 0 0 -45z"/>
<path d="M10357 23351 c-101 -106 -180 -249 -212 -383 -19 -82 -19 -247 0
-323 36 -142 147 -299 269 -381 49 -33 50 -33 79 -16 55 32 154 141 190 210
52 99 70 172 70 282 0 203 -77 387 -242 578 -89 103 -88 102 -154 33z m111
-127 c84 -99 160 -253 181 -368 22 -119 10 -217 -41 -323 -28 -60 -129 -183
-150 -183 -6 0 -40 30 -77 68 -175 178 -206 431 -84 677 26 52 113 174 125
175 3 0 24 -21 46 -46z"/>
<path d="M11754 22831 c-293 -144 -503 -382 -591 -668 -23 -78 -27 -105 -27
-233 -1 -171 13 -235 80 -379 56 -120 141 -241 170 -241 54 0 242 80 334 143
179 123 303 326 340 561 19 117 8 347 -24 472 -40 159 -141 394 -171 394 -6 0
-56 -22 -111 -49z m109 -133 c82 -193 111 -327 111 -508 0 -159 -21 -258 -84
-385 -75 -152 -187 -261 -347 -337 -125 -59 -134 -59 -172 -4 -154 223 -184
507 -80 759 80 193 266 389 484 509 28 15 53 28 56 28 3 0 18 -28 32 -62z"/>
<path d="M13203 22810 c-32 -13 -29 -17 10 -13 17 2 66 -1 107 -6 74 -10 74
-10 -26 -4 l-101 5 -36 -32 c-54 -47 -60 -77 -47 -227 18 -193 47 -411 65
-473 8 -30 15 -65 15 -77 0 -17 12 -29 51 -48 101 -52 187 -67 405 -72 l201
-5 29 37 c27 36 29 45 32 143 2 110 -41 584 -59 639 -10 33 -79 103 -102 103
-6 0 -113 9 -237 20 -250 22 -275 23 -307 10z"/>
<path d="M27880 22562 c-61 -33 -88 -109 -67 -184 7 -25 -29 -68 -485 -585
l-491 -558 -61 3 c-51 3 -66 0 -89 -18 -15 -12 -33 -20 -40 -17 -7 3 -219 131
-472 284 -396 240 -460 282 -457 301 6 41 -18 100 -53 131 -43 37 -102 42
-151 12 -42 -25 -70 -96 -59 -148 4 -21 8 -47 9 -59 0 -12 -184 -274 -489
-691 l-490 -671 -27 14 c-37 19 -67 18 -109 -5 l-36 -19 -479 529 -479 528 3
64 c5 76 -13 118 -61 147 -96 59 -204 -20 -195 -142 l3 -50 -454 -401 c-250
-221 -467 -412 -482 -425 -27 -22 -30 -22 -58 -7 -17 8 -43 15 -58 15 -32 0
-91 -33 -99 -55 -4 -8 -11 -15 -17 -15 -6 0 -217 82 -469 182 -456 181 -458
182 -458 210 0 67 -67 138 -128 138 -84 0 -135 -63 -131 -162 l3 -60 -489
-473 -488 -474 -30 15 c-38 20 -87 11 -126 -21 -16 -14 -32 -25 -36 -25 -4 0
-214 91 -466 202 l-457 201 -7 36 c-19 100 -91 148 -174 115 -53 -21 -84 -70
-86 -138 l-1 -51 -410 -338 c-225 -186 -440 -364 -477 -394 l-68 -56 -35 16
c-45 22 -72 21 -112 -3 -46 -28 -72 -76 -72 -133 0 -89 50 -147 127 -147 82 0
137 66 132 158 l-3 47 409 338 c226 186 441 364 478 394 l68 56 29 -16 c53
-32 123 -19 165 29 l20 23 460 -204 460 -204 6 -38 c12 -86 61 -133 137 -133
76 0 124 64 121 159 l-2 58 199 195 c715 699 769 749 789 742 11 -3 39 -9 61
-11 37 -4 46 -1 80 30 l39 35 460 -183 459 -182 13 -49 c27 -108 132 -150 208
-83 39 34 60 94 51 143 -6 31 3 40 356 351 200 176 417 368 484 427 l122 108
32 -16 c20 -10 43 -14 63 -10 18 3 39 7 47 8 9 2 208 -210 500 -531 l484 -535
3 -48 c5 -86 44 -136 114 -145 86 -12 157 67 146 163 l-5 45 495 677 495 677
51 0 c38 0 61 6 83 22 l31 22 469 -282 469 -282 5 -51 c15 -146 166 -190 241
-71 16 25 19 46 17 99 l-3 67 489 554 489 555 52 -5 c69 -7 110 14 136 70 23
53 24 102 1 146 -35 70 -110 97 -172 63z"/>
<path d="M9385 22240 c-140 -37 -252 -103 -358 -213 l-68 -70 33 -34 c85 -88
266 -188 406 -224 88 -23 239 -27 317 -9 125 29 237 111 314 230 l40 62 -27
36 c-38 50 -142 134 -212 171 -128 68 -304 89 -445 51z m321 -101 c69 -21 163
-80 212 -131 l33 -35 -56 -61 c-174 -188 -461 -187 -739 0 l-58 40 41 42 c75
77 218 149 328 165 73 12 161 4 239 -20z"/>
<path d="M37053 22221 c-75 -35 -87 -66 -142 -357 -27 -142 -52 -304 -56 -359
-6 -92 -5 -103 17 -145 27 -52 33 -54 196 -71 217 -22 466 2 544 53 24 16 18
-11 124 537 36 184 30 235 -31 291 l-27 25 -293 3 -293 4 -37 -34 c-26 -22
-34 -26 -25 -12 32 52 48 54 359 57 198 1 284 5 273 12 -10 6 -131 11 -292 13
-254 2 -278 1 -317 -17z"/>
<path d="M32027 21937 c-32 -84 -34 -386 -2 -507 9 -36 39 -112 67 -169 42
-87 62 -116 126 -180 129 -128 288 -191 485 -191 l95 0 15 39 c54 134 69 338
33 456 -40 135 -128 262 -245 355 -117 93 -314 176 -461 194 -30 4 -67 9 -81
12 -17 3 -28 0 -32 -9z m231 -108 c148 -45 295 -137 387 -241 55 -63 109 -168
131 -258 20 -80 14 -229 -13 -310 l-18 -55 -70 3 c-160 6 -285 60 -396 171
-136 136 -201 307 -203 536 0 72 3 143 7 159 8 28 9 28 58 22 27 -4 80 -16
117 -27z"/>
<path d="M33524 21582 c-459 -579 -842 -1218 -1117 -1862 -97 -229 -131 -319
-125 -326 4 -3 24 4 45 15 37 18 43 29 88 138 278 685 667 1352 1130 1942 96
123 104 140 87 198 -6 20 -20 7 -108 -105z"/>
<path d="M12739 21637 c-175 -67 -350 -189 -458 -319 -71 -85 -152 -242 -177
-343 -10 -44 -17 -111 -17 -180 0 -147 22 -255 81 -389 l26 -59 120 6 c171 8
322 55 441 137 l47 32 -7 47 c-4 25 -10 49 -14 54 -4 4 -25 -7 -47 -24 -89
-72 -267 -138 -416 -154 l-66 -7 -26 80 c-74 235 -56 436 56 626 49 82 169
212 254 272 60 43 257 144 282 144 6 0 12 8 12 18 0 9 3 34 6 55 4 20 3 37 -2
37 -5 -1 -48 -15 -95 -33z"/>
<path d="M13226 21575 c10 -68 23 -100 55 -133 37 -38 74 -49 199 -56 l95 -6
-85 25 c-132 41 -183 78 -257 191 -11 16 -12 13 -7 -21z"/>
<path d="M10145 21440 c-168 -20 -324 -83 -484 -193 -53 -36 -181 -156 -222
-208 l-30 -38 42 -38 c179 -163 439 -296 659 -337 46 -9 136 -16 205 -16 148
0 242 21 365 82 69 34 101 58 175 132 78 79 140 162 160 218 8 21 -101 138
-194 209 -91 69 -248 144 -351 168 -104 24 -232 32 -325 21z m273 -106 c150
-31 300 -110 427 -227 l60 -55 -19 -36 c-29 -55 -122 -152 -189 -198 -271
-184 -662 -148 -1032 97 -44 29 -89 63 -100 75 l-20 22 70 65 c237 218 532
313 803 257z"/>
<path d="M33610 20935 c-153 -31 -275 -97 -442 -238 -35 -29 -35 -37 2 -116
87 -182 221 -305 403 -366 78 -26 236 -47 292 -38 28 4 30 8 27 37 l-4 33 -91
6 c-110 7 -189 27 -277 70 -88 42 -213 167 -260 258 l-34 67 30 26 c123 110
266 170 480 203 l51 8 -9 33 c-8 31 -11 32 -56 31 -26 0 -76 -7 -112 -14z"/>
<path d="M37502 20880 c-51 -61 -133 -95 -307 -125 -82 -14 -157 -28 -165 -30
-8 -2 75 -1 185 2 217 6 238 11 275 64 20 27 54 118 47 125 -1 1 -17 -15 -35
-36z"/>
<path d="M10810 20341 c-323 -69 -606 -287 -794 -612 l-27 -47 78 -50 c338
-216 756 -299 1093 -216 36 8 117 41 180 72 104 50 124 64 210 151 105 105
168 205 211 331 l24 72 -45 40 c-148 129 -355 230 -540 264 -106 19 -287 16
-390 -5z m412 -97 c131 -29 324 -122 418 -202 l35 -30 -47 -93 c-82 -165 -190
-275 -344 -350 -137 -67 -214 -82 -404 -83 -182 -1 -259 11 -423 65 -110 37
-316 135 -324 155 -13 35 141 224 261 320 169 136 330 207 541 238 54 8 212
-3 287 -20z"/>
<path d="M12877 20002 c-91 -172 -127 -322 -127 -523 0 -118 15 -268 29 -282
9 -9 175 -46 251 -55 55 -7 55 -7 54 -42 0 -31 -16 -192 -29 -305 -6 -44 -8
-306 -3 -310 2 -1 55 -29 118 -60 152 -76 338 -177 426 -231 40 -24 76 -44 82
-44 6 0 4 18 -5 48 -20 65 -12 299 16 449 45 238 122 504 249 857 44 122 50
145 45 192 -6 54 -6 54 -37 51 -18 -2 -37 -6 -43 -10 -7 -5 -10 1 -9 18 2 13
0 22 -4 20 -4 -2 -17 35 -30 83 -30 115 -36 121 -72 80 -24 -29 -27 -38 -22
-73 4 -22 7 -47 8 -55 1 -9 6 -21 10 -28 4 -7 5 -16 2 -19 -3 -3 0 -13 7 -22
10 -14 10 -14 -4 -4 -9 7 -20 9 -25 5 -4 -4 -3 1 4 10 11 14 11 16 -2 14 -9
-1 -19 -5 -22 -9 -4 -4 -12 -7 -18 -7 -6 0 -4 5 4 10 12 8 10 10 -8 10 -13 0
-21 -4 -18 -8 7 -12 -26 -11 -41 0 -9 7 -41 -14 -110 -72 -54 -45 -131 -97
-170 -117 -82 -40 -70 -43 -149 30 -18 16 -34 25 -37 20 -5 -9 -72 -294 -83
-355 -5 -33 -10 -38 -33 -38 -34 1 -209 35 -217 43 -13 13 -25 177 -19 257 11
145 35 231 115 426 12 27 10 36 -11 83 l-24 53 -48 -90z"/>
<path d="M33159 19980 c-108 -22 -231 -71 -336 -134 -83 -50 -240 -176 -249
-201 -3 -8 5 -36 18 -64 l23 -49 37 15 38 15 -16 30 c-15 29 -15 31 13 60 15
16 72 59 125 95 253 168 518 218 793 147 50 -13 69 -14 118 -3 31 6 60 15 62
20 7 10 -133 56 -228 74 -107 20 -290 18 -398 -5z"/>
<path d="M11405 19186 c-89 -15 -212 -47 -265 -70 -41 -17 -37 -19 72 -39 69
-12 85 -12 165 5 102 21 302 26 404 9 122 -20 243 -61 374 -126 152 -76 291
-175 288 -205 -2 -14 7 -24 33 -35 20 -8 42 -15 49 -15 10 0 35 61 35 87 0 5
-28 32 -62 59 -199 159 -412 266 -628 315 -112 26 -355 34 -465 15z"/>
<path d="M10543 18697 c-40 -45 -91 -108 -113 -139 -45 -63 -133 -209 -128
-213 32 -24 141 -92 201 -124 l77 -43 0 54 0 53 -75 43 c-47 28 -73 48 -68 55
24 42 106 159 135 194 32 37 36 49 41 119 3 43 5 80 4 81 -2 1 -35 -35 -74
-80z"/>
<path d="M12522 18138 c-9 -9 -12 -152 -12 -583 l0 -572 -55 -58 c-30 -31 -55
-54 -55 -50 0 4 -7 2 -15 -5 -8 -7 -12 -17 -8 -24 11 -17 12 -37 2 -30 -5 3
-7 10 -4 15 4 5 -3 13 -14 17 -12 4 -83 93 -159 198 -75 104 -263 364 -416
577 -154 213 -288 390 -299 393 -12 4 -27 -1 -40 -15 -17 -17 -19 -24 -10 -44
6 -13 103 -151 215 -308 424 -590 628 -877 628 -883 0 -3 -5 -6 -11 -6 -5 0
-8 4 -4 9 3 5 1 12 -4 16 -6 3 -8 -5 -5 -20 2 -14 0 -25 -6 -25 -5 0 -10 -5
-10 -11 0 -5 5 -7 12 -3 7 4 8 3 4 -4 -4 -7 -14 -12 -23 -12 -8 0 -24 -11 -35
-25 -11 -14 -26 -25 -34 -25 -8 0 -13 -4 -10 -8 2 -4 -4 -9 -15 -9 -10 -1 -19
3 -19 8 0 6 -4 8 -8 5 -8 -5 -28 0 -631 170 -225 64 -382 103 -396 100 -26 -7
-38 -41 -24 -67 5 -11 37 -27 77 -38 197 -58 850 -241 861 -241 7 0 9 -4 6
-10 -3 -5 0 -7 9 -4 8 3 23 1 33 -5 10 -6 13 -11 7 -11 -7 0 -38 -25 -69 -55
-32 -30 -62 -55 -67 -55 -5 0 -19 -11 -32 -25 -13 -14 -28 -25 -35 -25 -6 0
-11 -9 -11 -20 0 -11 -12 -26 -27 -34 -16 -8 -51 -36 -78 -63 -28 -26 -83 -79
-123 -116 -39 -38 -70 -73 -66 -78 3 -5 -1 -6 -8 -4 -8 3 -31 -14 -53 -40 -22
-25 -45 -45 -51 -45 -6 0 -31 -21 -55 -47 -24 -27 -56 -54 -71 -62 -16 -8 -28
-23 -28 -33 0 -10 -5 -18 -11 -18 -6 0 -20 -11 -31 -25 -11 -14 -25 -25 -33
-25 -7 0 -25 -13 -38 -30 -14 -16 -27 -30 -30 -30 -2 0 -41 -36 -86 -80 -46
-44 -88 -80 -93 -80 -5 0 -20 -12 -33 -27 -52 -59 -53 -61 -33 -81 7 -7 13
-24 14 -37 1 -24 8 -49 39 -151 10 -32 11 -87 3 -250 -5 -115 -7 -327 -5 -471
5 -240 4 -263 -11 -264 -10 -1 -44 -1 -77 0 l-60 2 3 -103 c1 -57 -1 -139 -6
-183 -8 -75 -9 -71 -10 75 -2 213 -28 344 -97 480 -48 96 -127 196 -145 185
-5 -3 -12 0 -16 6 -5 8 -3 9 7 4 8 -5 5 1 -5 13 -19 22 -32 30 -22 13 3 -5 -1
-12 -10 -15 -12 -4 -15 -2 -10 9 5 14 2 14 -24 0 -16 -8 -36 -15 -45 -15 -22
0 -18 -15 8 -27 20 -10 17 -11 -23 -16 -25 -3 -56 -5 -70 -6 -46 0 -90 -13
-90 -26 0 -7 -11 -16 -25 -19 -14 -4 -35 -16 -47 -28 -14 -14 -23 -18 -26 -10
-5 17 -51 15 -69 -3 -8 -9 -28 -19 -44 -22 -35 -7 -37 -16 -6 -30 20 -10 17
-11 -23 -16 -25 -3 -56 -5 -70 -6 -45 0 -90 -13 -90 -25 0 -11 -67 -42 -82
-38 -4 1 -5 -5 -2 -13 4 -8 1 -15 -5 -15 -6 0 -11 5 -11 10 0 16 -50 12 -67
-5 -8 -9 -28 -19 -44 -22 -35 -7 -37 -16 -6 -30 20 -10 17 -11 -23 -16 -25 -3
-56 -5 -70 -6 -46 0 -90 -13 -90 -26 0 -7 -11 -16 -25 -19 -14 -4 -35 -16 -47
-28 -14 -14 -23 -18 -26 -10 -5 17 -51 15 -69 -3 -8 -9 -28 -19 -44 -22 -35
-7 -37 -16 -6 -31 20 -10 18 -11 -18 -9 -31 2 -39 -1 -37 -13 2 -8 0 -12 -4
-8 -4 4 -13 3 -20 -3 -8 -7 -14 -6 -20 2 -5 8 -3 10 7 5 9 -5 8 -2 -2 6 -42
35 -69 189 -69 399 0 320 70 703 201 1106 48 147 58 187 49 203 -13 25 -61 27
-82 3 -19 -22 -104 -282 -152 -463 -60 -230 -116 -565 -116 -694 0 -30 -3 -68
-6 -86 -6 -29 -11 -22 -51 86 -109 297 -248 752 -319 1044 -19 80 -38 158 -42
175 -10 40 -53 56 -82 30 -11 -10 -20 -25 -20 -34 0 -9 18 -88 39 -175 l39
-160 -37 44 c-187 223 -341 446 -408 590 -25 52 -48 102 -52 110 -11 21 -55
24 -75 5 -26 -26 -19 -57 38 -172 97 -194 281 -450 498 -695 88 -99 106 -125
117 -170 29 -117 234 -717 320 -937 50 -128 88 -237 86 -242 -3 -4 0 -11 7
-16 7 -4 14 -17 15 -28 1 -19 1 -19 -11 -3 -7 10 -16 14 -20 10 -4 -4 -6 0 -4
8 2 8 -3 14 -10 12 -8 -1 -11 2 -8 7 4 5 2 12 -3 15 -5 3 -8 -10 -7 -29 1 -22
-3 -35 -11 -35 -7 0 -13 5 -13 10 0 16 -50 12 -67 -5 -8 -9 -28 -19 -44 -22
-35 -7 -37 -16 -6 -32 20 -11 19 -11 -11 -6 -17 2 -44 0 -58 -5 -20 -8 -29 -7
-38 4 -97 121 -196 251 -242 320 -31 47 -58 85 -60 83 -2 -1 -4 -44 -5 -94
l-2 -91 100 -134 c123 -165 116 -153 96 -169 -12 -10 -14 -10 -9 -1 4 7 2 12
-6 12 -9 0 -9 3 2 10 10 7 11 10 2 10 -7 0 -18 -11 -24 -25 -11 -25 -28 -34
-28 -15 0 6 -13 10 -30 10 -16 0 -30 -4 -30 -10 0 -5 10 -10 22 -10 21 0 20
-2 -10 -30 -36 -33 -47 -37 -39 -17 3 8 1 20 -4 28 -6 9 -9 10 -9 2 0 -7 -10
-17 -22 -23 -21 -10 -21 -10 -5 3 25 20 21 28 -7 16 -14 -7 -22 -17 -20 -24 3
-6 -2 -12 -10 -12 -8 0 -13 4 -11 8 3 4 -2 10 -11 13 -10 4 -13 2 -8 -6 5 -8
2 -9 -10 -5 -9 4 -14 3 -11 -2 8 -14 -36 -41 -67 -41 -15 0 -30 -4 -33 -10 -9
-14 23 -12 70 5 47 17 55 18 55 6 0 -9 -70 -29 -115 -34 -11 -1 -24 -6 -28
-12 -5 -5 -6 1 -2 15 l6 25 -15 -25 c-9 -14 -15 -19 -16 -12 0 6 -4 12 -10 12
-6 0 -10 -31 -10 -74 0 -84 -7 -76 95 -96 33 -7 81 -21 108 -32 l47 -20 0 -65
0 -64 93 -93 c96 -97 142 -163 184 -268 24 -58 68 -246 60 -254 -9 -9 -207
-24 -249 -19 -46 7 -47 7 -57 55 -33 154 -37 322 -10 467 9 47 8 58 -5 72 -15
14 -16 8 -16 -68 l0 -82 -40 -17 -40 -17 0 -122 c0 -125 9 -173 33 -173 33 0
47 -35 47 -117 0 -75 2 -81 23 -87 29 -8 187 -6 260 3 l57 7 1 -105 c0 -59 3
-118 5 -132 4 -23 -3 -31 -53 -62 -59 -36 -182 -142 -173 -148 3 -2 23 -13 45
-24 l40 -20 3 -158 3 -158 -46 -20 c-25 -11 -73 -25 -106 -31 l-59 -12 0 -98
0 -98 334 0 c429 0 1279 -40 1407 -66 23 -4 36 7 108 93 100 119 218 243 231
243 6 0 10 -7 10 -15 0 -8 5 -15 10 -15 6 0 10 -7 10 -15 0 -8 5 -15 11 -15 5
0 7 -4 4 -10 -3 -5 -2 -10 3 -10 13 0 103 -138 105 -160 1 -10 5 -16 9 -14 4
3 8 0 8 -6 0 -6 5 -8 10 -5 6 3 11 1 11 -4 1 -6 2 -17 3 -23 1 -7 -3 -16 -9
-20 -6 -5 -4 -8 6 -8 8 0 21 6 28 13 10 10 11 9 6 -5 -5 -12 -2 -18 6 -19 8
-1 3 -5 -11 -9 -23 -7 -23 -8 -3 -9 27 -1 42 -21 16 -21 -15 0 -15 -2 -3 -9 8
-6 18 -7 22 -5 4 3 8 -2 8 -10 0 -9 7 -16 15 -16 18 0 20 -16 3 -23 -8 -3 -6
-6 5 -6 9 -1 17 -8 17 -16 0 -8 5 -15 11 -15 6 0 9 -7 5 -15 -3 -9 0 -15 9
-15 7 0 17 -5 21 -11 4 -8 -1 -9 -17 -4 -19 5 -21 4 -9 -4 8 -6 24 -11 35 -12
17 -1 16 -2 -5 -9 l-25 -7 28 -8 c15 -4 27 -13 27 -21 0 -8 5 -14 10 -14 6 0
10 -7 10 -15 0 -8 6 -15 13 -15 16 0 18 -32 3 -42 -6 -5 -1 -8 12 -8 24 0 30
-15 10 -24 -7 -3 -1 -5 14 -3 19 3 25 0 21 -10 -3 -7 -9 -13 -13 -13 -5 0 -6
-8 -4 -17 4 -15 -7 -21 -58 -33 l-63 -15 -3 -47 c-4 -58 -5 -57 125 -24 65 17
95 20 102 13 14 -14 14 -30 0 -22 -6 4 -5 -2 2 -14 10 -14 15 -17 21 -8 6 9 8
9 8 -1 0 -19 26 -42 47 -42 15 0 16 -2 3 -10 -12 -7 -10 -11 10 -19 14 -5 19
-10 13 -10 -23 -2 -14 -21 10 -21 12 0 18 -4 12 -8 -21 -15 -14 -29 13 -26 15
2 19 1 9 -2 -9 -3 -15 -10 -12 -15 4 -5 -55 -89 -129 -187 -141 -185 -158
-220 -117 -242 11 -5 24 -10 30 -10 5 0 40 39 78 88 125 162 205 262 210 262
3 0 2 -7 -1 -16 -6 -15 -4 -15 11 -3 10 7 15 9 11 5 -4 -5 -2 -16 5 -24 9 -13
9 -14 0 -8 -9 4 -13 1 -13 -9 0 -11 5 -15 14 -12 10 4 13 1 9 -9 -3 -8 1 -14
11 -14 10 0 13 -6 10 -15 -4 -10 0 -15 12 -16 11 0 14 -3 6 -6 -18 -7 -4 -23
21 -24 12 0 16 -3 10 -6 -21 -8 -15 -23 10 -24 18 0 19 -2 5 -7 -16 -6 -16 -9
3 -39 12 -18 25 -33 30 -33 5 0 9 -7 9 -16 0 -13 3 -14 14 -5 11 9 12 6 8 -14
-3 -20 0 -25 17 -25 23 0 29 -15 9 -23 -10 -4 -10 -6 0 -6 6 -1 12 -8 12 -16
0 -8 7 -15 15 -15 9 0 12 -6 9 -15 -4 -9 0 -15 10 -15 10 0 13 -6 10 -15 -4
-9 0 -15 10 -15 10 0 13 -6 10 -15 -4 -9 0 -15 10 -15 10 0 13 -6 10 -15 -4
-11 1 -15 17 -16 13 0 18 -3 12 -6 -21 -8 -15 -23 10 -24 20 0 20 -1 3 -8 -19
-7 -19 -8 2 -29 12 -12 22 -26 22 -32 0 -5 5 -10 10 -10 6 0 10 -7 10 -15 0
-8 6 -15 14 -15 8 0 18 -5 22 -12 4 -7 3 -8 -4 -4 -7 4 -12 2 -12 -3 0 -6 10
-11 23 -12 12 0 16 -3 10 -6 -24 -9 -13 -21 29 -31 34 -9 73 -6 203 13 258 40
243 38 219 21 -29 -21 -186 -89 -264 -114 -36 -12 -113 -33 -171 -46 -126 -28
-177 -53 -238 -114 -63 -64 -84 -111 -79 -177 13 -156 152 -289 375 -359 229
-71 454 -51 673 62 58 30 159 82 225 116 227 117 374 146 555 111 171 -33 323
0 390 86 41 51 85 149 110 244 23 92 50 281 50 358 l0 52 78 47 c114 68 287
192 400 285 111 93 341 324 417 422 l50 63 17 -40 18 -40 80 -7 81 -7 20 -40
c11 -22 19 -41 17 -42 -2 -1 -24 -14 -49 -29 -95 -54 -139 -151 -145 -317 -7
-215 -123 -493 -317 -763 -65 -90 -97 -168 -97 -235 0 -39 7 -56 38 -97 73
-96 174 -148 313 -161 141 -14 327 50 434 147 71 65 94 105 175 303 36 89 83
188 105 221 44 68 166 191 271 277 l71 58 74 -34 c130 -59 281 -106 461 -143
78 -16 375 -17 4691 -20 4427 -3 4607 -3 4607 15 0 10 -9 43 -20 74 -19 55
-19 57 -1 145 11 48 22 111 26 140 l7 52 -144 -68 c-414 -198 -808 -317 -1120
-338 -115 -7 -106 -17 -132 140 -33 193 -17 487 39 708 14 56 25 102 23 103
-2 2 -23 14 -48 28 -25 15 -61 40 -79 56 l-35 29 19 49 c35 94 135 322 240
549 94 204 111 248 154 414 27 102 67 245 90 318 22 73 41 135 41 138 0 3
-2023 5 -4495 5 l-4495 0 0 1305 0 1306 69 102 c241 361 418 676 552 989 131
305 233 847 215 1141 -9 131 -35 287 -62 366 -3 9 -20 -8 -45 -47 -75 -115
-194 -191 -377 -239 -89 -24 -115 -26 -307 -27 -271 -1 -419 15 -700 80 -60
13 -173 38 -250 55 -77 16 -158 34 -180 39 -22 5 -116 26 -210 45 -475 101
-591 127 -607 135 -23 13 -31 13 -23 0 4 -6 -2 -7 -17 -1 -21 8 -37 -3 -140
-98 -64 -58 -115 -111 -113 -118 2 -7 -2 -10 -8 -7 -7 2 -31 -16 -52 -41 -22
-25 -45 -45 -51 -45 -6 0 -31 -21 -55 -47 -24 -27 -56 -54 -71 -62 -16 -8 -28
-23 -28 -33 0 -10 -5 -18 -11 -18 -6 0 -20 -11 -31 -25 -11 -14 -25 -25 -33
-25 -7 0 -25 -13 -38 -30 -14 -16 -27 -30 -30 -30 -2 0 -41 -36 -86 -80 -46
-44 -88 -80 -93 -80 -5 0 -19 -11 -32 -25 -13 -14 -28 -25 -35 -25 -6 0 -11
-9 -11 -20 0 -11 -12 -26 -27 -34 -16 -8 -59 -45 -98 -82 l-70 -68 -3 529 c-1
370 -6 532 -13 542 -14 16 -51 17 -67 1z m-1259 -3743 c28 -66 50 -128 50
-138 -1 -11 3 -15 10 -11 7 4 9 4 5 -1 -4 -4 -3 -14 3 -21 7 -9 6 -12 -3 -10
-28 6 -48 19 -48 31 0 16 -101 27 -179 19 l-58 -7 -7 34 c-7 38 29 201 64 290
12 29 26 65 32 79 9 23 12 18 45 -60 19 -47 58 -139 86 -205z"/>
<path d="M18500 17472 l0 -262 50 0 50 0 0 213 0 213 -50 49 -50 49 0 -262z"/>
<path d="M19490 17457 c0 -215 3 -277 13 -277 6 0 29 -3 50 -6 l37 -7 0 235 0
234 -50 49 -50 49 0 -277z"/>
<path d="M39314 17409 c-170 -166 -264 -376 -264 -594 0 -173 60 -330 174
-451 l64 -69 49 25 c66 34 181 152 220 225 18 34 42 96 54 140 19 69 21 97 17
215 -5 111 -10 150 -33 220 -31 98 -81 201 -135 280 -63 93 -59 93 -146 9z
m140 -179 c149 -289 110 -611 -93 -777 l-56 -45 -37 43 c-48 55 -103 167 -118
240 -21 96 -8 248 29 351 35 94 100 199 164 265 l41 43 18 -28 c11 -15 34 -56
52 -92z"/>
<path d="M37996 17118 c-42 -72 -103 -209 -130 -291 -43 -132 -57 -217 -63
-377 -4 -134 -2 -169 17 -260 40 -193 116 -343 244 -478 97 -102 300 -234 338
-219 26 10 117 139 163 232 183 371 91 835 -235 1187 -76 83 -203 189 -269
226 l-40 23 -25 -43z m141 -150 c182 -143 328 -361 399 -594 25 -80 27 -105
28 -244 1 -150 0 -158 -32 -248 -34 -99 -63 -156 -119 -234 l-34 -48 -47 25
c-138 71 -276 213 -348 360 -73 149 -88 220 -88 430 0 156 3 192 23 275 41
164 120 348 144 334 7 -4 40 -29 74 -56z"/>
<path d="M20078 16840 c88 -134 131 -264 139 -420 15 -289 -119 -545 -363
-696 l-80 -49 83 -31 84 -31 62 45 c208 153 316 365 317 620 0 214 -71 387
-231 562 l-41 45 30 -45z"/>
<path d="M26630 16864 c-140 -17 -303 -70 -410 -131 -269 -156 -513 -516 -649
-960 -58 -190 -119 -469 -136 -623 -3 -30 -12 -106 -20 -169 -32 -245 -40
-585 -19 -864 5 -67 52 -168 108 -233 104 -121 301 -194 520 -194 l79 0 -7 58
c-4 31 -9 77 -12 102 -3 25 -12 90 -20 145 -65 443 -76 931 -28 1214 23 136
67 267 115 342 l42 64 36 -45 c230 -285 561 -489 911 -560 117 -24 285 -27
353 -6 l47 14 0 -147 c0 -297 -48 -581 -171 -1009 -23 -78 -40 -145 -37 -147
2 -3 38 -9 79 -15 349 -50 599 193 698 681 88 431 42 1079 -110 1544 -48 145
-137 334 -209 440 -97 144 -249 285 -390 363 -72 40 -212 89 -325 113 -88 19
-362 33 -445 23z"/>
<path d="M17191 16611 l44 -49 198 -1 197 -1 0 50 0 50 -241 0 -242 0 44 -49z"/>
<path d="M18300 16285 l0 -375 50 0 50 0 0 326 0 326 448 -5 c473 -4 520 -8
627 -56 l46 -20 -18 31 c-22 39 -118 102 -176 116 -96 25 -240 32 -624 32
l-403 0 0 -375z"/>
<path d="M3885 16569 c-38 -5 -105 -19 -148 -30 l-77 -21 6 -37 c13 -74 77
-249 123 -338 224 -424 602 -597 976 -447 l68 27 56 -28 c166 -81 586 -333
828 -498 l133 -89 66 7 c55 6 64 9 53 20 -29 26 -321 222 -494 330 -161 101
-403 241 -554 321 l-54 29 -18 86 c-83 404 -378 654 -794 673 -55 3 -131 0
-170 -5z m350 -113 c33 -9 102 -37 153 -62 155 -76 279 -215 339 -381 35 -96
54 -195 41 -210 -16 -19 -154 -60 -228 -68 -212 -22 -454 115 -609 344 -77
112 -171 331 -158 365 14 36 342 44 462 12z"/>
<path d="M5831 16415 c-145 -221 -195 -512 -125 -723 46 -136 154 -267 271
-330 l61 -32 41 49 c198 236 220 534 59 819 -30 54 -73 108 -145 180 -56 56
-106 102 -111 102 -4 0 -27 -29 -51 -65z m247 -292 c76 -144 100 -298 67 -428
-19 -74 -64 -169 -103 -215 l-29 -35 -43 30 c-128 89 -210 259 -210 435 0 113
36 251 98 375 l35 70 71 -76 c44 -47 87 -107 114 -156z"/>
<path d="M7145 16178 c-193 -141 -368 -383 -444 -618 -40 -122 -64 -345 -45
-417 5 -19 13 -23 48 -23 l41 0 0 138 c0 97 5 155 17 199 48 173 133 336 243
463 72 84 184 182 197 174 17 -11 90 -169 124 -269 36 -109 64 -263 64 -357 0
-105 -28 -253 -67 -355 -5 -11 4 -14 43 -11 l49 3 24 80 c32 110 41 347 17
485 -19 110 -71 271 -117 362 -36 74 -111 198 -119 198 -3 0 -36 -23 -75 -52z"/>
<path d="M40015 16194 c-62 -9 -122 -28 -185 -61 -73 -37 -180 -127 -180 -150
0 -8 19 -52 42 -96 109 -209 317 -319 548 -290 142 18 292 82 394 167 35 30
34 35 -49 143 -143 189 -385 310 -570 287z m210 -125 c84 -31 201 -115 263
-188 63 -75 65 -70 -53 -127 -250 -120 -503 -69 -633 126 -23 34 -42 70 -42
79 0 32 135 109 235 135 42 10 173 -4 230 -25z"/>
<path d="M37460 15757 c0 -2 11 -29 24 -59 98 -222 155 -479 141 -642 -11
-136 -68 -316 -99 -316 -12 0 -76 -69 -76 -83 0 -3 21 -8 48 -12 26 -3 57 -9
70 -12 20 -5 26 4 58 72 62 134 86 249 86 405 0 152 -23 267 -81 394 -43 95
-171 285 -171 253z"/>
<path d="M39141 15450 c-138 -37 -247 -99 -363 -208 l-66 -63 29 -71 c63 -154
192 -308 323 -387 245 -147 568 -148 871 -2 76 37 222 129 263 166 5 5 -47 84
-114 171 -154 199 -364 343 -576 394 -110 26 -265 26 -367 0z m301 -84 c150
-30 263 -83 391 -185 96 -76 237 -236 237 -269 0 -14 -169 -110 -249 -141
-110 -42 -221 -63 -341 -63 -125 -1 -214 19 -320 70 -101 49 -247 193 -304
300 l-38 73 23 25 c42 45 172 127 245 156 124 48 231 58 356 34z"/>
<path d="M20241 15350 c148 -198 180 -525 79 -800 -57 -158 -146 -287 -268
-393 -120 -103 -326 -188 -498 -204 l-64 -6 -2 -281 -3 -281 -274 -3 -275 -2
49 -50 49 -50 278 0 278 0 0 280 0 279 38 5 c193 28 319 70 438 148 144 94
244 207 319 363 62 127 87 232 93 391 8 222 -40 378 -165 534 -63 79 -120 134
-72 70z"/>
<path d="M18300 14926 l0 -436 50 0 50 0 0 386 0 387 453 -6 c500 -6 581 -14
696 -68 35 -16 66 -28 67 -26 10 10 -99 102 -151 127 -109 53 -198 62 -707 67
l-458 5 0 -436z"/>
<path d="M5163 15181 c-55 -16 -203 -94 -203 -107 0 -9 181 7 245 22 45 10
100 12 216 7 110 -4 158 -3 163 5 8 14 -79 60 -149 78 -69 19 -197 16 -272 -5z"/>
<path d="M38456 14479 c-161 -16 -325 -84 -473 -195 l-32 -24 25 -91 c96 -358
331 -594 694 -695 52 -15 102 -19 255 -19 206 0 283 13 440 72 86 32 225 101
225 111 0 4 -23 54 -51 112 -103 214 -259 410 -424 533 -207 154 -426 219
-659 196z m294 -119 c263 -74 499 -276 669 -575 28 -49 51 -93 51 -97 0 -22
-192 -95 -325 -124 -97 -20 -314 -23 -400 -5 -180 38 -314 103 -426 208 -121
115 -188 220 -243 380 l-25 72 57 35 c109 65 205 103 317 125 74 15 238 5 325
-19z"/>
<path d="M17185 13880 l49 -50 358 0 358 0 0 50 0 50 -407 0 -407 0 49 -50z"/>
<path d="M18498 13658 l-3 -273 -274 -3 -275 -2 49 -50 49 -50 278 0 278 0 0
275 0 275 170 0 170 0 0 50 0 50 -220 0 -220 0 -2 -272z"/>
<path d="M37727 13375 c-162 -31 -338 -106 -484 -207 -74 -51 -74 -52 -68 -89
4 -20 14 -63 24 -95 l17 -59 47 -3 c26 -2 47 1 47 5 0 4 -9 37 -20 72 -25 78
-27 75 104 150 104 59 223 104 337 127 123 25 333 16 454 -20 122 -36 292
-122 395 -200 109 -82 266 -246 352 -366 75 -106 182 -304 175 -323 -3 -7 -37
-25 -76 -42 -39 -16 -71 -33 -71 -37 0 -10 72 -58 87 -58 7 0 51 19 98 42 101
51 100 38 20 204 -108 224 -287 458 -459 601 -175 145 -335 230 -523 279 -125
33 -336 41 -456 19z"/>
<path d="M26335 12336 c-44 -20 -59 -52 -57 -121 3 -114 22 -510 28 -573 5
-56 8 -63 31 -68 37 -10 191 3 275 22 72 17 123 15 233 -5 56 -11 285 -14 309
-5 22 9 26 50 42 510 l7 180 -31 35 -30 34 -389 2 c-310 2 -394 0 -418 -11z
m816 -47 c20 -20 20 -28 14 -137 -10 -181 -15 -252 -21 -315 -6 -53 -8 -57
-28 -51 -11 4 -133 12 -271 19 -140 6 -230 14 -205 17 25 3 9 4 -35 2 -44 -2
-109 -7 -145 -11 l-65 -8 70 -6 c68 -6 68 -6 -27 -6 -54 -1 -97 2 -96 6 1 3
-1 24 -5 46 -4 22 -9 85 -12 140 -3 55 -8 138 -11 185 -5 77 -4 88 16 113 l21
27 390 0 c381 0 389 0 410 -21z"/>
<path d="M25206 11973 c-3 -21 -12 -51 -20 -66 -9 -15 -32 -85 -52 -155 -30
-105 -149 -467 -207 -627 -10 -30 -20 -41 -39 -43 -19 -2 -33 -19 -62 -73 -21
-39 -36 -72 -34 -75 3 -2 36 11 74 30 86 42 203 79 450 145 247 65 247 65 239
94 -19 62 -68 171 -157 352 -90 182 -168 384 -168 435 0 34 -17 22 -24 -17z"/>
<path d="M28121 11772 c-30 -102 -96 -242 -167 -349 -65 -100 -114 -198 -114
-229 0 -18 16 -25 138 -58 271 -73 447 -128 519 -161 40 -18 73 -32 73 -30 0
2 -16 32 -35 67 -29 53 -38 63 -58 60 -20 -2 -26 4 -36 39 -11 38 -75 191
-168 404 -20 44 -55 136 -80 205 -24 68 -45 126 -47 127 -1 1 -12 -32 -25 -75z"/>
<path d="M26580 11051 c-86 -44 -174 -85 -198 -91 -37 -12 -42 -17 -42 -43 0
-20 11 -40 34 -63 l34 -34 330 0 330 0 31 26 c26 22 51 75 51 110 0 6 -51 27
-112 47 -62 20 -155 57 -206 82 -51 25 -94 45 -95 44 -1 0 -72 -35 -157 -78z"/>
<path d="M41490 9886 l-52 -66 -133 0 -132 0 -27 39 c-15 21 -38 49 -51 61
-25 23 -26 23 -137 11 -159 -18 -170 -21 -165 -40 2 -9 14 -40 26 -68 11 -29
16 -53 11 -53 -6 0 -10 8 -10 18 -1 9 -9 33 -20 52 l-19 35 -1 -52 c0 -36 4
-53 13 -54 6 0 -28 -12 -77 -25 -50 -13 -92 -26 -94 -28 -2 -2 -48 14 -103 35
-55 21 -113 39 -128 39 -43 0 -204 -78 -197 -95 3 -9 0 -12 -10 -8 -13 5 -15
-8 -12 -91 l3 -97 -90 6 c-49 4 -97 8 -105 11 -8 2 -20 0 -26 -4 -21 -13 -75
-114 -70 -129 3 -8 1 -11 -4 -8 -7 4 -10 -72 -10 -215 l0 -220 42 -66 41 -66
96 7 c53 3 106 9 119 12 22 5 22 4 22 -96 l0 -102 106 -49 c58 -28 112 -50
119 -50 7 0 61 20 120 44 103 43 108 44 148 31 23 -8 61 -19 85 -25 l42 -11 0
-69 c0 -64 2 -70 23 -75 51 -11 182 -25 237 -25 l58 0 44 60 43 59 121 1 121
0 52 -60 c47 -53 56 -60 90 -60 45 0 250 28 262 36 5 3 9 36 9 73 l0 67 80 24
81 23 115 -43 c129 -48 113 -49 257 22 l77 38 0 101 0 101 63 -6 c70 -6 135
-9 157 -7 8 0 30 29 49 64 l34 63 -9 225 -9 224 -39 64 -39 63 -76 -6 c-42 -4
-95 -9 -118 -12 l-43 -6 0 94 c0 60 -5 100 -12 110 -17 22 -177 91 -208 90
-14 -1 -69 -19 -122 -41 l-97 -39 -88 23 c-48 13 -100 26 -115 29 l-27 6 25
65 c18 49 21 67 12 70 -7 2 -60 9 -118 15 -58 6 -117 13 -132 16 -23 5 -33 -3
-78 -60z m75 -620 c69 -20 170 -63 184 -80 23 -28 -133 -95 -269 -117 -115
-18 -317 -7 -416 23 -88 26 -178 74 -169 89 16 25 136 73 235 94 89 19 353 14
435 -9z"/>
<path d="M23223 9739 c-70 -12 -266 -75 -327 -106 -69 -35 -141 -106 -173
-172 -25 -50 -28 -67 -27 -151 0 -83 4 -105 33 -178 124 -314 594 -730 1119
-992 341 -170 659 -274 1170 -381 111 -23 200 -44 199 -46 -2 -2 -127 -39
-278 -83 -151 -45 -287 -85 -304 -90 -16 -5 -79 -14 -140 -20 -99 -10 -113
-14 -140 -40 -16 -15 -48 -37 -71 -48 -38 -20 -53 -20 -260 -15 -252 7 -383
-8 -541 -58 -120 -39 -291 -154 -516 -349 -149 -128 -150 -130 -145 -248 5
-120 34 -186 109 -257 104 -97 262 -148 459 -148 200 0 380 41 685 156 140 52
166 66 212 108 31 30 61 49 75 49 13 0 57 -16 97 -35 l74 -36 81 16 c45 9 135
30 201 46 66 16 140 34 164 39 61 15 97 43 133 107 28 50 38 58 127 102 364
183 825 341 1345 462 l209 48 196 -40 c722 -149 1334 -332 1796 -538 91 -41
104 -40 105 2 0 28 13 20 42 -26 63 -100 200 -195 381 -266 124 -48 231 -71
330 -71 202 0 485 -96 691 -234 74 -50 122 -65 200 -66 157 -1 229 91 230 295
1 93 -2 106 -36 190 -20 50 -48 121 -63 160 -89 237 -243 389 -405 396 -107 5
-444 108 -567 173 -78 42 -129 95 -119 123 8 20 -126 146 -194 182 -49 26 -72
33 -119 32 -65 0 -153 -34 -235 -90 l-45 -31 -218 50 c-120 28 -225 53 -233
56 -8 3 82 25 200 49 596 119 995 268 1366 510 304 198 512 395 666 629 116
177 163 308 156 431 -6 90 -34 153 -96 213 -63 61 -122 93 -257 135 -291 93
-572 84 -1094 -33 -131 -29 -319 -58 -736 -111 l-560 -72 -87 -82 c-343 -322
-791 -433 -1373 -339 -145 23 -436 95 -658 164 -300 92 -464 136 -557 150 -47
7 -91 18 -99 23 -7 6 -23 32 -35 56 l-21 45 -130 17 c-71 10 -319 49 -550 88
-451 75 -610 99 -885 132 -190 23 -474 32 -557 18z"/>
<path d="M17450 7003 c-63 -8 -119 -19 -125 -24 -5 -5 -11 -38 -13 -74 -4 -58
-2 -65 14 -66 11 0 -32 -13 -94 -30 l-113 -29 -112 45 c-61 25 -117 45 -124
45 -7 0 -60 -21 -118 -47 -73 -32 -104 -51 -100 -61 3 -7 0 -10 -6 -7 -7 5 -9
-27 -7 -100 l3 -106 -30 5 c-16 3 -75 8 -131 12 l-100 7 -47 -75 -46 -74 -1
-199 -2 -199 44 -22 c73 -39 36 -26 -64 21 -53 25 -103 45 -113 45 -10 0 -88
-27 -172 -60 -85 -33 -158 -58 -163 -55 -4 3 -64 21 -132 39 -68 19 -115 35
-105 35 15 1 17 12 17 89 l-1 87 -34 -79 c-19 -44 -35 -81 -35 -83 0 -2 8 -3
17 -3 9 0 14 -3 10 -6 -3 -3 -15 -3 -26 1 -19 6 -19 9 15 86 19 45 34 87 34
94 0 8 -14 17 -32 20 -56 9 -339 45 -358 45 -11 0 -47 -36 -89 -89 l-71 -89
-188 1 -189 1 -64 88 c-61 84 -66 88 -102 88 -50 0 -369 -39 -376 -46 -5 -4
26 -104 54 -175 5 -13 -3 -18 -40 -24 -26 -3 -100 -21 -165 -39 l-118 -32
-143 58 c-78 32 -155 58 -170 58 -31 0 -291 -112 -297 -128 -2 -6 35 -31 82
-57 47 -26 86 -49 86 -52 0 -2 -38 16 -84 41 -46 25 -87 46 -90 46 -3 0 -6
-58 -6 -129 0 -94 3 -131 13 -135 6 -3 -8 -4 -33 -1 -228 23 -311 27 -325 15
-26 -21 -107 -169 -99 -181 4 -8 3 -9 -4 -5 -9 5 -12 -16 -13 -76 -1 -46 -3
-117 -5 -158 -1 -41 -4 -147 -5 -236 l-2 -160 41 -76 c23 -42 49 -81 57 -88
12 -10 46 -11 138 -6 67 4 139 9 160 13 l37 6 0 -147 0 -147 138 -66 c75 -35
151 -65 167 -65 17 -1 97 25 178 56 l148 58 82 -26 c45 -14 97 -28 115 -32
l32 -7 0 -97 c0 -66 4 -101 13 -108 13 -11 317 -52 385 -52 46 0 49 3 129 101
l55 69 178 0 177 0 63 -84 c44 -60 70 -86 89 -90 45 -9 411 38 422 55 5 8 9
55 9 106 l0 91 33 7 c17 4 71 18 119 31 l88 24 146 -60 c81 -33 157 -60 170
-60 13 0 89 30 169 66 l145 67 0 145 0 145 63 -7 c116 -12 272 -17 283 -9 6 4
34 45 62 90 l51 81 1 249 c1 371 1 385 -10 378 -5 -3 -7 0 -4 8 5 14 -37 98
-78 160 -11 15 -15 27 -10 27 6 0 28 -33 51 -74 l40 -74 103 40 102 39 85 -24
86 -24 3 -76 c3 -89 -10 -80 157 -102 181 -23 172 -25 233 50 l53 65 132 0
132 -1 45 -62 c54 -74 56 -74 225 -57 171 18 165 14 165 103 l0 73 93 23 92
23 119 -47 119 -47 41 17 c22 9 75 33 116 53 l75 37 3 109 3 108 67 -6 c155
-15 178 -16 188 -9 6 4 27 34 48 66 l37 59 2 242 2 241 -40 70 c-46 79 -34 76
-197 62 l-88 -7 0 103 c0 123 6 115 -132 177 l-97 43 -121 -46 -121 -47 -85
25 c-48 14 -94 25 -103 26 -10 0 -11 2 -3 6 8 3 12 25 11 61 l-1 57 -23 -50
c-16 -35 -19 -52 -11 -57 7 -5 5 -8 -6 -8 -23 0 -23 4 9 78 14 34 24 65 21 68
-9 8 -287 44 -301 38 -7 -2 -35 -33 -62 -68 l-50 -64 -142 2 -141 1 -49 65
c-57 76 -56 76 -233 53z m660 -714 c81 -20 192 -68 204 -87 8 -14 -24 -39 -84
-65 -99 -44 -177 -58 -335 -64 -126 -4 -166 -2 -248 15 -92 19 -197 60 -241
94 -18 14 -17 17 26 42 116 68 264 97 458 91 95 -3 160 -10 220 -26z m-1490
-543 l0 -83 -31 -7 c-17 -3 -51 -6 -75 -6 l-44 0 0 84 c0 96 -5 91 103 95 l47
1 0 -84z m-1644 -76 c135 -14 227 -34 324 -71 78 -30 176 -86 167 -95 -3 -3
-23 6 -45 20 -86 54 -215 98 -357 121 -100 17 -347 20 -440 6 -33 -5 -80 -12
-105 -15 -41 -5 -40 -4 13 9 125 32 283 41 443 25z m-38 -320 c196 -15 345
-56 465 -127 l57 -35 -24 -19 c-13 -11 -58 -35 -98 -54 -254 -121 -680 -131
-959 -24 -77 30 -169 84 -169 99 0 14 118 76 188 99 93 31 195 51 307 60 55 5
102 9 105 9 3 1 60 -3 128 -8z"/>
</g>
</svg>
