<?xml version="1.0" standalone="no"?>
<!DOCTYPE svg PUBLIC "-//W3C//DTD SVG 20010904//EN"
 "http://www.w3.org/TR/2001/REC-SVG-20010904/DTD/svg10.dtd">
<svg version="1.0" xmlns="http://www.w3.org/2000/svg"
 width="24.000000pt" height="24.000000pt" viewBox="0 0 24.000000 24.000000"
 preserveAspectRatio="xMidYMid meet">
<metadata>
Created by potrace 1.16, written by Peter Selinger 2001-2019
</metadata>
<g transform="translate(0.000000,24.000000) scale(0.100000,-0.100000)"
fill="#000000" stroke="none">
<path d="M90 226 c0 -15 -21 -26 -50 -26 -27 0 -40 -28 -27 -58 8 -17 8 -29
-1 -43 -17 -27 1 -59 33 -59 14 0 30 -9 37 -20 15 -23 68 -28 68 -6 0 15 21
26 50 26 27 0 40 28 27 58 -8 17 -8 29 1 43 17 27 -1 59 -33 59 -14 0 -30 9
-37 20 -15 23 -68 28 -68 6z"/>
</g>
</svg>
