<svg xmlns="http://www.w3.org/2000/svg"  viewBox="0 0 100 100" width="50px" height="50px"><circle cx="13" cy="29" r="2" fill="#78a0cf"/><circle cx="77" cy="13" r="1" fill="#f1bc19"/><circle cx="50" cy="50" r="37" fill="#cee1f4"/><circle cx="83" cy="15" r="4" fill="#f1bc19"/><circle cx="87" cy="24" r="2" fill="#78a0cf"/><circle cx="81" cy="76" r="2" fill="#fbcd59"/><circle cx="15" cy="63" r="4" fill="#fbcd59"/><circle cx="25" cy="87" r="2" fill="#78a0cf"/><circle cx="18.5" cy="53.5" r="2.5" fill="#fff"/><circle cx="21" cy="67" r="1" fill="#f1bc19"/><circle cx="80" cy="34" r="1" fill="#fff"/><path fill="#e1e0d8" d="M28.005,65.001l-0.004-30c0-3.866,3.134-7.001,7-7.001H65c3.866,0,7,3.134,7,7v30 c0,3.866-3.134,7-7,7H35.005C31.139,72,28.005,68.867,28.005,65.001z"/><path fill="#472b29" d="M65,28.4c3.639,0,6.6,2.961,6.6,6.6v30c0,3.639-2.961,6.6-6.6,6.6H35c-3.639,0-6.6-2.961-6.6-6.6V35 c0-3.639,2.961-6.6,6.6-6.6H65 M65,27H35c-4.418,0-8,3.582-8,8v30c0,4.418,3.582,8,8,8h30c4.418,0,8-3.582,8-8V35 C73,30.582,69.418,27,65,27L65,27z"/><circle cx="50" cy="50" r="19" fill="#836f61"/><path fill="#472b29" d="M65.755,39.627c-0.08,0-0.159-0.039-0.207-0.11C62.051,34.34,56.239,31.25,50,31.25 c-0.749,0-1.504,0.045-2.245,0.133c-0.134,0.015-0.262-0.081-0.278-0.218c-0.017-0.137,0.082-0.262,0.218-0.278 c0.76-0.091,1.536-0.137,2.304-0.137c6.405,0,12.372,3.173,15.962,8.487c0.078,0.115,0.047,0.27-0.067,0.347 C65.852,39.613,65.803,39.627,65.755,39.627z"/><path fill="#472b29" d="M67.706,43.343c-0.1,0-0.194-0.061-0.233-0.159c-0.216-0.554-0.463-1.106-0.734-1.641 c-0.063-0.123-0.013-0.273,0.11-0.336c0.123-0.061,0.274-0.012,0.336,0.11c0.278,0.548,0.531,1.115,0.753,1.685 c0.05,0.128-0.013,0.273-0.142,0.324C67.767,43.337,67.736,43.343,67.706,43.343z"/><path fill="#472b29" d="M62.503,64.557c-0.069,0-0.139-0.029-0.188-0.085c-0.091-0.104-0.081-0.262,0.023-0.353 c4.075-3.564,6.412-8.71,6.412-14.119c0-1.658-0.217-3.303-0.644-4.89c-0.036-0.133,0.043-0.271,0.176-0.306 c0.133-0.035,0.271,0.042,0.306,0.176c0.439,1.629,0.661,3.318,0.661,5.02c0,5.553-2.399,10.836-6.583,14.495 C62.62,64.536,62.562,64.557,62.503,64.557z"/><path fill="#472b29" d="M58.772,67.108c-0.09,0-0.177-0.049-0.222-0.134c-0.064-0.123-0.017-0.273,0.106-0.337 c0.594-0.31,1.178-0.655,1.734-1.026c0.113-0.077,0.27-0.046,0.347,0.069c0.077,0.115,0.045,0.27-0.069,0.347 c-0.571,0.381-1.17,0.735-1.78,1.054C58.851,67.099,58.811,67.108,58.772,67.108z"/><path fill="#472b29" d="M50,69.25c-7.157,0-13.682-3.934-17.03-10.267c-0.064-0.122-0.018-0.273,0.104-0.338 c0.122-0.063,0.273-0.018,0.338,0.104c3.26,6.168,9.616,10,16.587,10c2.365,0,4.671-0.435,6.854-1.292 c0.127-0.051,0.273,0.013,0.324,0.142c0.05,0.128-0.013,0.273-0.142,0.324C54.796,68.804,52.428,69.25,50,69.25z"/><path fill="#472b29" d="M32.312,57.201c-0.1,0-0.194-0.06-0.232-0.159c-0.471-1.195-0.821-2.444-1.042-3.712 c-0.024-0.136,0.067-0.266,0.203-0.289c0.132-0.029,0.265,0.066,0.289,0.203c0.215,1.235,0.557,2.452,1.015,3.616 c0.051,0.128-0.012,0.273-0.141,0.324C32.373,57.195,32.342,57.201,32.312,57.201z"/><path fill="#472b29" d="M31.004,49.849c-0.001,0-0.003,0-0.005,0c-0.138-0.003-0.248-0.117-0.245-0.255 c0.145-7.011,4.1-13.392,10.32-16.653c0.121-0.064,0.273-0.018,0.337,0.105s0.017,0.273-0.105,0.337 c-6.059,3.177-9.911,9.393-10.052,16.222C31.251,49.741,31.14,49.849,31.004,49.849z"/><path fill="#472b29" d="M43.054,32.56c-0.1,0-0.194-0.06-0.233-0.159c-0.05-0.128,0.013-0.273,0.142-0.324 c0.893-0.351,1.821-0.636,2.758-0.849c0.135-0.032,0.268,0.054,0.299,0.188c0.031,0.134-0.054,0.269-0.188,0.299 c-0.912,0.208-1.816,0.486-2.686,0.828C43.115,32.554,43.084,32.56,43.054,32.56z"/><path fill="#472b29" d="M50,37c-0.276,0-0.5-0.224-0.5-0.5v-3c0-0.276,0.224-0.5,0.5-0.5s0.5,0.224,0.5,0.5v3 C50.5,36.776,50.276,37,50,37z"/><path fill="#472b29" d="M47.655,37.205c-0.238,0-0.449-0.17-0.492-0.413l-0.521-2.955c-0.048-0.272,0.133-0.531,0.405-0.579 c0.269-0.049,0.531,0.133,0.579,0.405l0.521,2.955c0.048,0.272-0.133,0.531-0.405,0.579C47.713,37.203,47.684,37.205,47.655,37.205 z"/><path fill="#472b29" d="M45.383,37.814c-0.204,0-0.396-0.126-0.47-0.329l-1.026-2.819c-0.095-0.259,0.039-0.546,0.299-0.641 c0.259-0.094,0.546,0.039,0.641,0.299l1.026,2.819c0.095,0.259-0.039,0.546-0.299,0.641C45.498,37.804,45.439,37.814,45.383,37.814 z"/><path fill="#472b29" d="M43.25,38.809c-0.173,0-0.341-0.089-0.434-0.25l-1.5-2.598c-0.138-0.239-0.056-0.545,0.183-0.683 c0.238-0.138,0.544-0.057,0.683,0.183l1.5,2.598c0.138,0.239,0.056,0.545-0.183,0.683C43.421,38.787,43.335,38.809,43.25,38.809z"/><path fill="#472b29" d="M41.323,40.158c-0.143,0-0.285-0.061-0.383-0.179l-1.928-2.298c-0.178-0.211-0.15-0.527,0.062-0.704 c0.213-0.178,0.528-0.149,0.704,0.062l1.928,2.298c0.178,0.211,0.15,0.527-0.062,0.704C41.55,40.12,41.436,40.158,41.323,40.158z"/><path fill="#472b29" d="M39.658,41.822c-0.113,0-0.227-0.039-0.321-0.117l-2.298-1.928 c-0.211-0.177-0.239-0.493-0.062-0.704c0.177-0.211,0.493-0.239,0.704-0.062l2.298,1.928c0.211,0.177,0.239,0.493,0.062,0.704 C39.942,41.762,39.801,41.822,39.658,41.822z"/><path fill="#472b29" d="M38.308,43.75c-0.085,0-0.171-0.021-0.25-0.067l-2.598-1.5c-0.239-0.138-0.321-0.444-0.183-0.683 s0.444-0.321,0.683-0.183l2.598,1.5c0.239,0.138,0.321,0.444,0.183,0.683C38.649,43.66,38.481,43.75,38.308,43.75z"/><path fill="#472b29" d="M37.314,45.883c-0.057,0-0.115-0.01-0.171-0.03l-2.819-1.026c-0.26-0.094-0.394-0.381-0.299-0.641 c0.094-0.26,0.383-0.393,0.641-0.299l2.819,1.026c0.26,0.094,0.394,0.381,0.299,0.641C37.71,45.757,37.518,45.883,37.314,45.883z"/><path fill="#472b29" d="M36.706,48.156c-0.029,0-0.058-0.002-0.087-0.008l-2.955-0.521 c-0.272-0.048-0.454-0.307-0.405-0.579c0.048-0.272,0.306-0.457,0.579-0.405l2.955,0.521c0.272,0.048,0.454,0.307,0.405,0.579 C37.155,47.985,36.944,48.156,36.706,48.156z"/><path fill="#472b29" d="M36.5,50.5h-3c-0.276,0-0.5-0.224-0.5-0.5s0.224-0.5,0.5-0.5h3c0.276,0,0.5,0.224,0.5,0.5 S36.776,50.5,36.5,50.5z"/><path fill="#472b29" d="M33.75,53.365c-0.238,0-0.449-0.17-0.492-0.413c-0.048-0.272,0.133-0.531,0.405-0.579l2.955-0.521 c0.272-0.051,0.531,0.133,0.579,0.405c0.048,0.272-0.133,0.531-0.405,0.579l-2.955,0.521C33.808,53.363,33.779,53.365,33.75,53.365 z"/><path fill="#472b29" d="M34.495,56.144c-0.204,0-0.396-0.126-0.47-0.329c-0.095-0.259,0.039-0.546,0.299-0.641l2.819-1.026 c0.259-0.094,0.546,0.039,0.641,0.299c0.095,0.259-0.039,0.546-0.299,0.641l-2.819,1.026C34.61,56.134,34.552,56.144,34.495,56.144 z"/><path fill="#472b29" d="M35.711,58.75c-0.173,0-0.341-0.089-0.434-0.25c-0.138-0.239-0.056-0.545,0.183-0.683l2.598-1.5 c0.238-0.139,0.544-0.057,0.683,0.183c0.138,0.239,0.056,0.545-0.183,0.683l-2.598,1.5C35.882,58.729,35.796,58.75,35.711,58.75z"/><path fill="#472b29" d="M37.361,61.106c-0.143,0-0.285-0.061-0.383-0.179c-0.178-0.211-0.15-0.527,0.062-0.704l2.298-1.928 c0.213-0.178,0.528-0.15,0.704,0.062c0.178,0.211,0.15,0.527-0.062,0.704l-2.298,1.928C37.588,61.067,37.474,61.106,37.361,61.106z"/><path fill="#472b29" d="M39.394,63.14c-0.113,0-0.227-0.039-0.321-0.117c-0.211-0.177-0.239-0.493-0.062-0.704l1.928-2.298 c0.177-0.212,0.492-0.239,0.704-0.062c0.211,0.177,0.239,0.493,0.062,0.704l-1.928,2.298C39.678,63.079,39.537,63.14,39.394,63.14z"/><path fill="#472b29" d="M41.75,64.79c-0.085,0-0.171-0.021-0.25-0.067c-0.239-0.138-0.321-0.444-0.183-0.683l1.5-2.598 c0.138-0.24,0.443-0.322,0.683-0.183c0.239,0.138,0.321,0.444,0.183,0.683l-1.5,2.598C42.09,64.7,41.922,64.79,41.75,64.79z"/><path fill="#472b29" d="M44.356,66.005c-0.057,0-0.115-0.01-0.171-0.03c-0.26-0.094-0.394-0.381-0.299-0.641l1.026-2.819 c0.095-0.259,0.384-0.392,0.641-0.299c0.26,0.094,0.394,0.381,0.299,0.641l-1.026,2.819C44.752,65.879,44.561,66.005,44.356,66.005 z"/><path fill="#472b29" d="M47.135,66.75c-0.029,0-0.058-0.002-0.087-0.008c-0.272-0.048-0.454-0.307-0.405-0.579l0.521-2.955 c0.048-0.272,0.307-0.455,0.579-0.405c0.272,0.048,0.454,0.307,0.405,0.579l-0.521,2.955C47.584,66.579,47.374,66.75,47.135,66.75z"/><path fill="#472b29" d="M50,67c-0.276,0-0.5-0.224-0.5-0.5v-3c0-0.276,0.224-0.5,0.5-0.5s0.5,0.224,0.5,0.5v3 C50.5,66.776,50.276,67,50,67z"/><path fill="#472b29" d="M52.865,66.75c-0.238,0-0.449-0.17-0.492-0.413l-0.521-2.955c-0.048-0.272,0.133-0.531,0.405-0.579 c0.27-0.051,0.532,0.133,0.579,0.405l0.521,2.955c0.048,0.272-0.133,0.531-0.405,0.579C52.923,66.747,52.894,66.75,52.865,66.75z"/><path fill="#472b29" d="M55.644,66.005c-0.204,0-0.396-0.126-0.47-0.329l-1.026-2.819c-0.095-0.259,0.039-0.546,0.299-0.641 c0.259-0.093,0.546,0.04,0.641,0.299l1.026,2.819c0.095,0.259-0.039,0.546-0.299,0.641C55.758,65.995,55.7,66.005,55.644,66.005z"/><path fill="#472b29" d="M58.25,64.79c-0.173,0-0.341-0.089-0.434-0.25l-1.5-2.598c-0.138-0.239-0.056-0.545,0.183-0.683 c0.237-0.139,0.544-0.057,0.683,0.183l1.5,2.598c0.138,0.239,0.056,0.545-0.183,0.683C58.421,64.768,58.335,64.79,58.25,64.79z"/><path fill="#472b29" d="M60.606,63.14c-0.143,0-0.285-0.061-0.383-0.179l-1.928-2.298c-0.178-0.211-0.15-0.527,0.062-0.704 c0.213-0.178,0.527-0.15,0.704,0.062l1.928,2.298c0.178,0.211,0.15,0.527-0.062,0.704C60.833,63.101,60.72,63.14,60.606,63.14z"/><path fill="#472b29" d="M62.639,61.106c-0.113,0-0.227-0.039-0.321-0.117l-2.298-1.928 c-0.211-0.177-0.239-0.493-0.062-0.704c0.177-0.212,0.492-0.239,0.704-0.062l2.298,1.928c0.211,0.177,0.239,0.493,0.062,0.704 C62.924,61.045,62.782,61.106,62.639,61.106z"/><path fill="#472b29" d="M64.289,58.75c-0.085,0-0.171-0.021-0.25-0.067l-2.598-1.5c-0.239-0.138-0.321-0.444-0.183-0.683 c0.138-0.239,0.444-0.322,0.683-0.183l2.598,1.5c0.239,0.138,0.321,0.444,0.183,0.683C64.63,58.66,64.462,58.75,64.289,58.75z"/><path fill="#472b29" d="M65.505,56.144c-0.057,0-0.115-0.01-0.171-0.03l-2.819-1.026c-0.26-0.094-0.394-0.381-0.299-0.641 c0.095-0.26,0.384-0.393,0.641-0.299l2.819,1.026c0.26,0.094,0.394,0.381,0.299,0.641C65.901,56.018,65.709,56.144,65.505,56.144z"/><path fill="#472b29" d="M66.25,53.365c-0.029,0-0.058-0.002-0.087-0.008l-2.955-0.521c-0.272-0.048-0.454-0.307-0.405-0.579 c0.047-0.272,0.309-0.455,0.579-0.405l2.955,0.521c0.272,0.048,0.454,0.307,0.405,0.579C66.699,53.195,66.488,53.365,66.25,53.365z"/><path fill="#472b29" d="M66.5,50.5h-3c-0.276,0-0.5-0.224-0.5-0.5s0.224-0.5,0.5-0.5h3c0.276,0,0.5,0.224,0.5,0.5 S66.776,50.5,66.5,50.5z"/><path fill="#472b29" d="M63.294,48.156c-0.238,0-0.449-0.17-0.492-0.413c-0.048-0.272,0.133-0.531,0.405-0.579l2.955-0.521 c0.271-0.052,0.531,0.133,0.579,0.405c0.048,0.272-0.133,0.531-0.405,0.579l-2.955,0.521 C63.353,48.153,63.323,48.156,63.294,48.156z"/><path fill="#472b29" d="M62.686,45.883c-0.204,0-0.396-0.126-0.47-0.329c-0.095-0.259,0.039-0.546,0.299-0.641l2.819-1.026 c0.26-0.094,0.546,0.039,0.641,0.299c0.095,0.259-0.039,0.546-0.299,0.641l-2.819,1.026C62.801,45.873,62.743,45.883,62.686,45.883 z"/><path fill="#472b29" d="M61.692,43.75c-0.173,0-0.341-0.089-0.434-0.25c-0.138-0.239-0.056-0.545,0.183-0.683l2.598-1.5 c0.238-0.138,0.544-0.057,0.683,0.183c0.138,0.239,0.056,0.545-0.183,0.683l-2.598,1.5C61.863,43.729,61.777,43.75,61.692,43.75z"/><path fill="#472b29" d="M60.342,41.822c-0.143,0-0.285-0.061-0.383-0.179c-0.178-0.211-0.15-0.527,0.062-0.704l2.298-1.928 c0.213-0.177,0.527-0.149,0.704,0.062c0.178,0.211,0.15,0.527-0.062,0.704l-2.298,1.928C60.569,41.784,60.456,41.822,60.342,41.822 z"/><path fill="#472b29" d="M58.677,40.158c-0.113,0-0.227-0.039-0.321-0.117c-0.211-0.177-0.239-0.493-0.062-0.704l1.928-2.298 c0.177-0.211,0.493-0.239,0.704-0.062c0.211,0.177,0.239,0.493,0.062,0.704l-1.928,2.298C58.962,40.098,58.82,40.158,58.677,40.158 z"/><path fill="#472b29" d="M56.75,38.809c-0.085,0-0.171-0.021-0.25-0.067c-0.239-0.138-0.321-0.444-0.183-0.683l1.5-2.598 c0.138-0.24,0.444-0.321,0.683-0.183c0.239,0.138,0.321,0.444,0.183,0.683l-1.5,2.598C57.09,38.719,56.922,38.809,56.75,38.809z"/><path fill="#472b29" d="M54.617,37.814c-0.057,0-0.115-0.01-0.171-0.03c-0.26-0.094-0.394-0.381-0.299-0.641l1.026-2.819 c0.094-0.26,0.382-0.393,0.641-0.299c0.26,0.094,0.394,0.381,0.299,0.641l-1.026,2.819C55.013,37.688,54.821,37.814,54.617,37.814z"/><path fill="#472b29" d="M48.059,43.255c-0.221,0-0.422-0.147-0.482-0.371l-0.777-2.897 c-0.072-0.267,0.087-0.541,0.354-0.612c0.268-0.071,0.541,0.086,0.612,0.354l0.777,2.897c0.072,0.267-0.087,0.541-0.354,0.612 C48.145,43.25,48.102,43.255,48.059,43.255z"/><path fill="#472b29" d="M50,43c-0.276,0-0.5-0.224-0.5-0.5v-3c0-0.276,0.224-0.5,0.5-0.5s0.5,0.224,0.5,0.5v3 C50.5,42.776,50.276,43,50,43z"/><path fill="#472b29" d="M51.941,43.255c-0.043,0-0.086-0.005-0.13-0.017c-0.267-0.071-0.425-0.346-0.354-0.612l0.777-2.897 c0.072-0.267,0.346-0.424,0.612-0.354c0.267,0.071,0.425,0.346,0.354,0.612l-0.777,2.897 C52.364,43.108,52.162,43.255,51.941,43.255z"/><path fill="#472b29" d="M53.75,44.005c-0.085,0-0.171-0.021-0.25-0.067c-0.239-0.138-0.321-0.444-0.183-0.683l1.5-2.598 c0.139-0.239,0.443-0.321,0.683-0.183c0.239,0.138,0.321,0.444,0.183,0.683l-1.5,2.598C54.09,43.915,53.922,44.005,53.75,44.005z"/><path fill="#472b29" d="M55.303,45.197c-0.128,0-0.256-0.049-0.354-0.146c-0.195-0.195-0.195-0.512,0-0.707l2.122-2.122 c0.195-0.195,0.512-0.195,0.707,0s0.195,0.512,0,0.707l-2.122,2.122C55.559,45.148,55.431,45.197,55.303,45.197z"/><path fill="#472b29" d="M56.496,46.75c-0.173,0-0.341-0.089-0.434-0.25c-0.138-0.239-0.056-0.545,0.183-0.683l2.598-1.5 c0.238-0.139,0.544-0.057,0.683,0.183c0.138,0.239,0.056,0.545-0.183,0.683l-2.598,1.5C56.667,46.729,56.581,46.75,56.496,46.75z"/><path fill="#472b29" d="M57.244,48.559c-0.221,0-0.422-0.147-0.482-0.371c-0.072-0.267,0.087-0.541,0.354-0.612l2.897-0.777 c0.268-0.071,0.541,0.087,0.612,0.354s-0.087,0.541-0.354,0.612l-2.897,0.777C57.331,48.554,57.287,48.559,57.244,48.559z"/><path fill="#472b29" d="M42.575,57.925c-0.128,0-0.256-0.049-0.354-0.146c-0.195-0.195-0.195-0.512,0-0.707l2.122-2.122 c0.195-0.195,0.512-0.195,0.707,0s0.195,0.512,0,0.707l-2.122,2.122C42.831,57.876,42.703,57.925,42.575,57.925z"/><path fill="#472b29" d="M40.907,55.75c-0.173,0-0.341-0.089-0.434-0.25c-0.138-0.239-0.056-0.545,0.183-0.683l2.598-1.5 c0.238-0.138,0.545-0.056,0.683,0.183s0.056,0.545-0.183,0.683l-2.598,1.5C41.078,55.729,40.992,55.75,40.907,55.75z"/><path fill="#472b29" d="M39.857,53.218c-0.221,0-0.422-0.147-0.482-0.371c-0.072-0.267,0.087-0.541,0.354-0.612l2.897-0.777 c0.268-0.07,0.541,0.087,0.612,0.354s-0.087,0.541-0.354,0.612l-2.897,0.777C39.944,53.212,39.9,53.218,39.857,53.218z"/><path fill="#472b29" d="M42.5,50.5h-3c-0.276,0-0.5-0.224-0.5-0.5s0.224-0.5,0.5-0.5h3c0.276,0,0.5,0.224,0.5,0.5 S42.776,50.5,42.5,50.5z"/><path fill="#472b29" d="M42.756,48.559c-0.043,0-0.086-0.005-0.13-0.017l-2.897-0.777c-0.267-0.071-0.425-0.346-0.354-0.612 s0.346-0.423,0.612-0.354l2.897,0.777c0.267,0.071,0.425,0.346,0.354,0.612C43.178,48.412,42.977,48.559,42.756,48.559z"/><path fill="#472b29" d="M43.504,46.75c-0.085,0-0.171-0.021-0.25-0.067l-2.598-1.5c-0.239-0.138-0.321-0.444-0.183-0.683 c0.138-0.24,0.444-0.322,0.683-0.183l2.598,1.5c0.239,0.138,0.321,0.444,0.183,0.683C43.845,46.66,43.677,46.75,43.504,46.75z"/><path fill="#472b29" d="M44.697,45.197c-0.128,0-0.256-0.049-0.354-0.146l-2.122-2.122c-0.195-0.195-0.195-0.512,0-0.707 s0.512-0.195,0.707,0l2.122,2.122c0.195,0.195,0.195,0.512,0,0.707C44.953,45.148,44.825,45.197,44.697,45.197z"/><path fill="#472b29" d="M60.143,53.218c-0.043,0-0.086-0.005-0.13-0.017l-2.897-0.777c-0.267-0.071-0.425-0.346-0.354-0.612 c0.072-0.267,0.347-0.423,0.612-0.354l2.897,0.777c0.267,0.071,0.425,0.346,0.354,0.612C60.565,53.071,60.363,53.218,60.143,53.218 z"/><path fill="#472b29" d="M59.093,55.75c-0.085,0-0.171-0.021-0.25-0.067l-2.598-1.5c-0.239-0.138-0.321-0.444-0.183-0.683 s0.444-0.321,0.683-0.183l2.598,1.5c0.239,0.138,0.321,0.444,0.183,0.683C59.434,55.66,59.266,55.75,59.093,55.75z"/><path fill="#472b29" d="M57.425,57.925c-0.128,0-0.256-0.049-0.354-0.146l-2.122-2.122c-0.195-0.195-0.195-0.512,0-0.707 s0.512-0.195,0.707,0l2.122,2.122c0.195,0.195,0.195,0.512,0,0.707C57.681,57.876,57.553,57.925,57.425,57.925z"/><path fill="#472b29" d="M55.25,59.593c-0.173,0-0.341-0.089-0.434-0.25l-1.5-2.598c-0.138-0.239-0.056-0.545,0.183-0.683 c0.237-0.139,0.544-0.057,0.683,0.183l1.5,2.598c0.138,0.239,0.056,0.545-0.183,0.683C55.421,59.572,55.335,59.593,55.25,59.593z"/><path fill="#472b29" d="M52.717,60.642c-0.221,0-0.422-0.147-0.482-0.371l-0.777-2.897 c-0.072-0.267,0.087-0.541,0.354-0.612c0.269-0.071,0.541,0.087,0.612,0.354l0.777,2.897c0.072,0.267-0.087,0.541-0.354,0.612 C52.804,60.637,52.76,60.642,52.717,60.642z"/><path fill="#472b29" d="M50,61c-0.276,0-0.5-0.224-0.5-0.5v-3c0-0.276,0.224-0.5,0.5-0.5s0.5,0.224,0.5,0.5v3 C50.5,60.776,50.276,61,50,61z"/><path fill="#472b29" d="M47.283,60.642c-0.043,0-0.086-0.005-0.13-0.017c-0.267-0.071-0.425-0.346-0.354-0.612l0.777-2.897 c0.072-0.267,0.346-0.423,0.612-0.354c0.267,0.071,0.425,0.346,0.354,0.612l-0.777,2.897 C47.705,60.495,47.503,60.642,47.283,60.642z"/><g><path fill="#cbc9bc" d="M50,58.75c-4.825,0-8.75-3.925-8.75-8.75s3.925-8.75,8.75-8.75s8.75,3.925,8.75,8.75 S54.825,58.75,50,58.75z M50,43.75c-3.446,0-6.25,2.804-6.25,6.25s2.804,6.25,6.25,6.25s6.25-2.804,6.25-6.25 S53.446,43.75,50,43.75z"/></g><g><path fill="#472b29" d="M50,41.5c4.687,0,8.5,3.813,8.5,8.5s-3.813,8.5-8.5,8.5s-8.5-3.813-8.5-8.5S45.313,41.5,50,41.5 M50,56.5c3.584,0,6.5-2.916,6.5-6.5s-2.916-6.5-6.5-6.5s-6.5,2.916-6.5,6.5S46.416,56.5,50,56.5 M50,41c-4.962,0-9,4.038-9,9 s4.038,9,9,9s9-4.038,9-9S54.962,41,50,41L50,41z M50,56c-3.309,0-6-2.691-6-6s2.691-6,6-6s6,2.691,6,6S53.309,56,50,56L50,56z"/></g><path fill="#472b29" d="M52.345,37.205c-0.029,0-0.058-0.002-0.087-0.008c-0.272-0.048-0.454-0.307-0.405-0.579l0.521-2.955 c0.047-0.272,0.308-0.454,0.579-0.405c0.272,0.048,0.454,0.307,0.405,0.579l-0.521,2.955 C52.794,37.035,52.583,37.205,52.345,37.205z"/><g><path fill="#e1e0d8" d="M50,64.75c-8.133,0-14.75-6.617-14.75-14.75S41.867,35.25,50,35.25S64.75,41.867,64.75,50 S58.133,64.75,50,64.75z M51.443,51.25c-0.445,0-0.86,0.239-1.083,0.625l-4.632,8.024c-0.193,0.334-0.223,0.733-0.08,1.094 c0.141,0.355,0.429,0.622,0.791,0.731c1.15,0.349,2.348,0.526,3.561,0.526c5.721,0,10.622-3.889,11.92-9.458 c0.087-0.375,0-0.764-0.241-1.067c-0.24-0.302-0.598-0.476-0.982-0.476H51.443z M42.482,40.738c-0.32,0-0.625,0.121-0.859,0.34 C39.125,43.42,37.75,46.588,37.75,50s1.375,6.58,3.873,8.921c0.234,0.22,0.539,0.34,0.859,0.34c0.449,0,0.866-0.24,1.089-0.627 l4.625-8.01c0.223-0.386,0.223-0.864,0-1.25l-4.625-8.01C43.348,40.979,42.931,40.738,42.482,40.738z M50,37.75 c-1.213,0-2.411,0.177-3.561,0.526c-0.362,0.11-0.65,0.376-0.791,0.731c-0.143,0.36-0.113,0.759,0.08,1.094l4.632,8.024 c0.222,0.386,0.637,0.625,1.083,0.625h9.253c0.384,0,0.743-0.173,0.982-0.476c0.241-0.303,0.328-0.691,0.241-1.067 C60.622,41.639,55.721,37.75,50,37.75z"/></g><g><path fill="#472b29" d="M50,35.5c7.995,0,14.5,6.505,14.5,14.5S57.995,64.5,50,64.5S35.5,57.995,35.5,50 S42.005,35.5,50,35.5 M51.443,49h9.253c0.461,0,0.891-0.208,1.179-0.57c0.288-0.363,0.393-0.829,0.288-1.279 C60.839,41.469,55.837,37.5,50,37.5c-1.237,0-2.459,0.18-3.633,0.536c-0.436,0.132-0.783,0.453-0.951,0.879 c-0.171,0.432-0.136,0.909,0.096,1.31l4.633,8.024C50.411,48.713,50.909,49,51.443,49 M42.482,59.512 c0.538,0,1.038-0.288,1.306-0.752l4.624-8.01c0.267-0.463,0.267-1.037,0-1.5l-4.624-8.01c-0.268-0.464-0.768-0.752-1.306-0.752 c-0.384,0-0.75,0.145-1.03,0.408C38.903,43.285,37.5,46.519,37.5,50s1.403,6.715,3.951,9.104 C41.732,59.367,42.098,59.512,42.482,59.512 M50,62.5c5.837,0,10.839-3.969,12.163-9.651c0.105-0.45,0-0.916-0.288-1.279 C61.587,51.208,61.157,51,60.696,51h-9.253c-0.534,0-1.032,0.287-1.299,0.75l-4.633,8.024c-0.232,0.401-0.266,0.879-0.096,1.31 c0.169,0.427,0.515,0.747,0.951,0.879C47.541,62.32,48.763,62.5,50,62.5 M50,35c-8.28,0-15,6.72-15,15s6.72,15,15,15 s15-6.72,15-15S58.28,35,50,35L50,35z M51.443,48.5c-0.357,0-0.687-0.191-0.866-0.5l-4.633-8.024 c-0.321-0.556-0.046-1.275,0.568-1.461C47.616,38.18,48.787,38,50,38c5.688,0,10.439,3.955,11.676,9.264 c0.147,0.63-0.333,1.236-0.98,1.236H51.443L51.443,48.5z M42.482,59.012c-0.245,0-0.492-0.088-0.688-0.272 C39.462,56.553,38,53.451,38,50s1.462-6.553,3.793-8.739c0.196-0.184,0.443-0.272,0.688-0.272c0.344,0,0.684,0.174,0.873,0.502 l4.624,8.01c0.179,0.309,0.179,0.691,0,1l-4.624,8.01C43.166,58.837,42.826,59.012,42.482,59.012L42.482,59.012z M50,62 c-1.213,0-2.384-0.18-3.488-0.515c-0.614-0.186-0.888-0.905-0.568-1.461L50.577,52c0.179-0.309,0.509-0.5,0.866-0.5h9.253 c0.646,0,1.127,0.606,0.98,1.236C60.439,58.045,55.688,62,50,62L50,62z"/></g><circle cx="50" cy="50" r="1" fill="#472b29"/></svg>